<svg xmlns="http://www.w3.org/2000/svg" viewBox="0 0 555 398"><defs><style>.cls-1{fill:#8a94a2;}.cls-2{fill:#dbfe6f;}.cls-3{fill:#80919b;}</style></defs><g id="Layer_2" data-name="Layer 2"><g id="Layer_1-2" data-name="Layer 1"><path class="cls-1" d="M555,199H0V34.89A34.89,34.89,0,0,1,34.89,0H520.11A34.89,34.89,0,0,1,555,34.89Z"/><polygon class="cls-2" points="320.45 84.8 320.45 123.75 311.03 123.75 311.03 87.94 320.45 84.8"/><polygon class="cls-2" points="334.89 79.99 334.89 123.75 325.21 123.75 325.21 83.22 334.89 79.99"/><polygon class="cls-2" points="349.72 75.05 349.72 123.75 339.77 123.75 339.77 78.37 349.72 75.05"/><path class="cls-2" d="M374.17,83.25V102h-2.53L361.2,88.48V102h-2.94V83.25h2.53l10.44,13.53V83.25Z"/><path class="cls-2" d="M378.52,86.74a1.61,1.61,0,1,1,1.61-1.61A1.56,1.56,0,0,1,378.52,86.74ZM379.85,102h-2.68V89.15h2.68Z"/><path class="cls-2" d="M388.92,94.5l5.35,7.49h-2.95l-4.14-5.75-2,2.15V102H382.5V83.25h2.66V94.9l5.49-5.75h3.22Z"/><path class="cls-2" d="M400.35,88.87a6.69,6.69,0,1,1-6.69,6.7A6.79,6.79,0,0,1,400.35,88.87Zm0,2.42a4.29,4.29,0,1,0,4,4.28A4.15,4.15,0,0,0,400.35,91.29Z"/><path class="cls-2" d="M411.47,102h-2.66V83.25h2.66Z"/><path class="cls-2" d="M421.53,102v-1.33a5.65,5.65,0,0,1-3.88,1.59c-2.85,0-4.54-2-4.54-3.73,0-2.2,1.51-3.65,3.73-4l4.69-.81a2.46,2.46,0,0,0-2.67-2.4c-1.58,0-2.29.58-3.35,1.74l-1.74-1.74a6.48,6.48,0,0,1,5.09-2.42c3.31,0,5.35,2.24,5.35,4.82V102Zm0-6.15-4.15.66a1.77,1.77,0,0,0-1.61,1.74c0,1,1.17,1.61,2.29,1.61C421.92,99.85,421.5,95.92,421.53,95.84Z"/><path class="cls-2" d="M363.72,115.37c-3.49-.88-6-2.07-6-5.6,0-2.66,2.09-5.08,6.15-5.08a7.25,7.25,0,0,1,5.62,2.4L367.61,109a4.82,4.82,0,0,0-3.75-1.61c-1.66,0-3.21.91-3.21,2.4,0,1.89,2.06,2.51,3.89,3,3.44.87,6,2,6,5.58,0,3-2.18,5.62-6.69,5.62a8.56,8.56,0,0,1-6.69-2.94l1.87-1.87a5.94,5.94,0,0,0,4.82,2.15c2.54,0,3.75-1.46,3.75-3C367.61,116.45,365.55,115.84,363.72,115.37Z"/><path class="cls-2" d="M375.39,112.18a5.71,5.71,0,0,1,3.88-1.61c3,0,5.23,2,5.23,5.63v7.49h-2.68V116.2a3.06,3.06,0,0,0-3.09-3.21c-2.17,0-3.34,1.53-3.34,3.75v7h-2.67V105h2.67Z"/><path class="cls-2" d="M388.72,118.2a4.06,4.06,0,0,0,4,3.35,4.74,4.74,0,0,0,3.88-2l1.74,1.74a7.42,7.42,0,0,1-5.62,2.66,6.78,6.78,0,0,1-6.69-6.82,6.55,6.55,0,0,1,6.56-6.56,6.13,6.13,0,0,1,6.29,6.3l-.15,1.33Zm.11-2.27h7.44a3.57,3.57,0,0,0-3.67-3.07A3.8,3.8,0,0,0,388.83,115.93Z"/><path class="cls-2" d="M406.93,114.06a3.55,3.55,0,0,0-2.42-1.07c-.91,0-1.87.45-1.87,1.33s.89,1.3,1.7,1.52c2.65.7,4.86,1.45,4.86,4.1,0,2-1.72,4-4.82,4a6.36,6.36,0,0,1-4.95-2.27l1.74-1.74a4.37,4.37,0,0,0,3.21,1.61c1.16,0,2.14-.44,2.14-1.61,0-.84-.89-1.29-1.69-1.51-2.65-.73-4.87-1.43-4.87-4.11,0-1.79,1.73-3.75,4.55-3.75a5.71,5.71,0,0,1,4.16,1.75Z"/><path class="cls-2" d="M412.28,106.56h2.41v4.28h2.67v2.41h-2.67v6.66a1.62,1.62,0,0,0,.45,1.18c.89.89,2.35.2,2.5.2v2.4a6.19,6.19,0,0,1-1.88.26q-3.75,0-3.74-4v-6.69H409.6v-2.41H411c.89,0,1.33-.53,1.33-1.6Z"/><path class="cls-2" d="M426.94,123.69v-1.33a5.6,5.6,0,0,1-3.88,1.59c-2.85,0-4.55-2-4.55-3.74,0-2.19,1.52-3.64,3.74-4l4.69-.81a2.46,2.46,0,0,0-2.68-2.4c-1.58,0-2.29.58-3.34,1.74L419.18,113a6.48,6.48,0,0,1,5.08-2.42c3.31,0,5.36,2.24,5.36,4.82v8.3Zm0-6.16-4.15.67a1.77,1.77,0,0,0-1.61,1.74c0,1,1.16,1.61,2.29,1.61C427.33,121.55,426.91,117.62,426.94,117.53Z"/><path class="cls-2" d="M438.57,116.2l5.36,7.49H441l-4.14-5.75-2,2.14v3.61h-2.66v-16.1l1.31-2.64h1.35v11.64l5.49-5.75h3.22Z"/><path class="cls-2" d="M450,110.57a6.69,6.69,0,1,1-6.69,6.7A6.79,6.79,0,0,1,450,110.57Zm0,2.42a4.29,4.29,0,1,0,4,4.28A4.15,4.15,0,0,0,450,113Z"/><path class="cls-2" d="M461.42,123.69l-5.23-12.85H459l3.75,9.37,3.75-9.37h2.81l-5.23,12.85Z"/><path class="cls-2" d="M429.6,102l-5.21-12.82h2.8l3.74,9.35,3.74-9.35h2.81l-5.75,14.15a10.26,10.26,0,0,1-2,3.32,3.29,3.29,0,0,1-2.43,1,6.07,6.07,0,0,1-1.87-.26v-2.41a3.72,3.72,0,0,0,1.34.27c1,0,1.77-.63,2.27-1.87Z"/><polygon class="cls-2" points="103.62 84.77 103.62 123.72 94.2 123.72 94.2 87.91 103.62 84.77"/><polygon class="cls-2" points="118.06 79.96 118.06 123.72 108.37 123.72 108.37 83.19 118.06 79.96"/><polygon class="cls-2" points="132.88 75.02 132.88 123.72 122.94 123.72 122.94 78.34 132.88 75.02"/><polygon class="cls-2" points="156.91 101.97 153.97 101.97 153.97 93.78 144.7 93.78 144.7 101.97 141.76 101.97 141.76 83.19 144.7 83.19 144.7 91.11 153.97 91.11 153.97 83.19 156.91 83.19 156.91 101.97"/><polygon class="cls-2" points="171.5 89.1 171.5 101.97 168.82 101.97 168.82 93.52 162.11 101.97 159.7 101.97 159.7 89.1 162.39 89.1 162.39 97.54 169.09 89.1 171.5 89.1"/><polygon class="cls-2" points="180.67 94.47 186.03 101.97 183.08 101.97 178.93 96.21 176.91 98.36 176.91 101.97 174.22 101.97 174.22 89.1 176.91 89.1 176.91 94.86 182.41 89.1 185.63 89.1 180.67 94.47"/><path class="cls-2" d="M192.64,88.82a6.71,6.71,0,1,1-6.71,6.71A6.8,6.8,0,0,1,192.64,88.82Zm0,2.42a4.3,4.3,0,1,0,4,4.29A4.16,4.16,0,0,0,192.64,91.24Z"/><path class="cls-2" d="M212.92,89.1V102h-2.69V91.51h-4.55v1.35a22.69,22.69,0,0,1-.59,5.8c-.62,2.27-1.47,3.57-3.84,3.57a6.2,6.2,0,0,1-1.61-.26V99.42a2.35,2.35,0,0,0,2.23-.3c1-1,1.12-4.86,1.12-6.27V89.1Z"/><path class="cls-2" d="M223.51,102v-1.33a5.62,5.62,0,0,1-3.89,1.59c-2.85,0-4.55-2-4.55-3.74,0-2.21,1.51-3.66,3.74-4l4.7-.82a2.23,2.23,0,0,0-.75-1.71,2.76,2.76,0,0,0-1.93-.7A3.74,3.74,0,0,0,217.48,93l-1.75-1.75a6.53,6.53,0,0,1,5.1-2.42c3.32,0,5.37,2.25,5.37,4.83V102Zm0-6.17-4.16.67a1.76,1.76,0,0,0-1.61,1.74c0,1,1.17,1.61,2.29,1.61C223.9,99.82,223.48,95.89,223.51,95.8Z"/><path class="cls-2" d="M240.94,89.1V102h-2.68V93.52L231.55,102h-2.41V89.1h2.69v8.44l6.7-8.44Zm-4-5.91h2a3.89,3.89,0,0,1-7.78,0h2a1.88,1.88,0,1,0,3.76,0Z"/><polygon class="cls-2" points="164.29 123.72 141.76 123.72 141.76 104.94 144.7 104.94 144.7 121.03 151.54 121.03 151.54 104.94 154.5 104.94 154.5 121.03 161.34 121.03 161.34 104.94 164.29 104.94 164.29 123.72"/><path class="cls-2" d="M168.68,118.22a4.05,4.05,0,0,0,4,3.35,4.75,4.75,0,0,0,3.89-2l1.74,1.74a7.51,7.51,0,0,1-5.63,2.67,6.78,6.78,0,0,1-6.7-6.84,6.57,6.57,0,0,1,6.56-6.57,6.13,6.13,0,0,1,6.31,6.31l-.14,1.34Zm.12-2.28h7.45a3.59,3.59,0,0,0-3.68-3.08A3.8,3.8,0,0,0,168.8,115.94Z"/><path class="cls-2" d="M187.19,110.57a6.77,6.77,0,0,1,5.22,2.55l-1.74,1.75a4.57,4.57,0,0,0-3.48-1.88,4.3,4.3,0,0,0,0,8.58,4.63,4.63,0,0,0,3.61-2l1.75,1.74a7.19,7.19,0,0,1-5.36,2.67,6.71,6.71,0,1,1,0-13.41Z"/><polygon class="cls-2" points="193.41 110.84 204.94 110.84 204.94 113.25 200.51 113.25 200.51 123.72 197.84 123.72 197.84 113.25 193.41 113.25 193.41 110.84"/><path class="cls-2" d="M214.12,123.72v-1.34a5.61,5.61,0,0,1-3.89,1.6c-2.86,0-4.56-2-4.56-3.74,0-2.21,1.51-3.66,3.74-4l4.71-.81a2.48,2.48,0,0,0-2.69-2.41,3.77,3.77,0,0,0-3.35,1.74L206.34,113a6.48,6.48,0,0,1,5.09-2.42c3.32,0,5.37,2.24,5.37,4.83v8.32Zm0-6.17-4.17.67a1.77,1.77,0,0,0-1.61,1.74c0,1,1.17,1.61,2.29,1.61C214.5,121.57,214.09,117.64,214.12,117.55Z"/><polygon class="cls-2" points="225.68 116.22 231.03 123.72 228.09 123.72 223.93 117.96 221.92 120.11 221.92 123.72 219.23 123.72 219.23 110.84 221.92 110.84 221.92 116.61 227.42 110.84 230.64 110.84 225.68 116.22"/><path class="cls-2" d="M237.65,110.57a6.71,6.71,0,1,1-6.71,6.71A6.79,6.79,0,0,1,237.65,110.57Zm0,2.42a4.3,4.3,0,1,0,4,4.29A4.16,4.16,0,0,0,237.65,113Z"/><path class="cls-2" d="M252.46,110.84c2.66,0,4,1.58,4,3.36a3.08,3.08,0,0,1-1.47,2.68,3.36,3.36,0,0,1,2.15,3.08c0,2.42-1.92,3.76-4.43,3.76h-6.44V110.84Zm0,2.28H249v2.69h3.48a1.35,1.35,0,1,0,0-2.69ZM249,118v3.48h3.75a1.63,1.63,0,0,0,1.75-1.74,1.7,1.7,0,0,0-1.75-1.74Z"/><path class="cls-2" d="M520.11,398H34.89A34.89,34.89,0,0,1,0,363.11V199H555V363.11A34.89,34.89,0,0,1,520.11,398Z"/><polygon class="cls-3" points="320.45 283.8 320.45 322.75 311.03 322.75 311.03 286.94 320.45 283.8"/><polygon class="cls-3" points="334.89 278.99 334.89 322.75 325.21 322.75 325.21 282.22 334.89 278.99"/><polygon class="cls-3" points="349.72 274.05 349.72 322.75 339.77 322.75 339.77 277.37 349.72 274.05"/><path class="cls-3" d="M374.17,282.25V301h-2.53L361.2,287.48V301h-2.94V282.25h2.53l10.44,13.53V282.25Z"/><path class="cls-3" d="M378.52,285.74a1.61,1.61,0,1,1,1.61-1.61A1.56,1.56,0,0,1,378.52,285.74ZM379.85,301h-2.68V288.15h2.68Z"/><path class="cls-3" d="M388.92,293.5l5.35,7.49h-2.95l-4.14-5.75-2,2.15V301H382.5V282.25h2.66V293.9l5.49-5.75h3.22Z"/><path class="cls-3" d="M400.35,287.87a6.69,6.69,0,1,1-6.69,6.7A6.79,6.79,0,0,1,400.35,287.87Zm0,2.42a4.29,4.29,0,1,0,4,4.28A4.15,4.15,0,0,0,400.35,290.29Z"/><path class="cls-3" d="M411.47,301h-2.66V282.25h2.66Z"/><path class="cls-3" d="M421.53,301v-1.33a5.65,5.65,0,0,1-3.88,1.59c-2.85,0-4.54-2-4.54-3.73,0-2.2,1.51-3.65,3.73-4l4.69-.81a2.46,2.46,0,0,0-2.67-2.4c-1.58,0-2.29.58-3.35,1.74l-1.74-1.74a6.48,6.48,0,0,1,5.09-2.42c3.31,0,5.35,2.24,5.35,4.82V301Zm0-6.15-4.15.66a1.77,1.77,0,0,0-1.61,1.74c0,1,1.17,1.61,2.29,1.61C421.92,298.85,421.5,294.92,421.53,294.84Z"/><path class="cls-3" d="M363.72,314.37c-3.49-.88-6-2.07-6-5.6,0-2.66,2.09-5.08,6.15-5.08a7.25,7.25,0,0,1,5.62,2.4L367.61,308a4.82,4.82,0,0,0-3.75-1.61c-1.66,0-3.21.91-3.21,2.4,0,1.89,2.06,2.51,3.89,3,3.44.87,6,2.05,6,5.58,0,3-2.18,5.62-6.69,5.62a8.56,8.56,0,0,1-6.69-2.94l1.87-1.87a5.94,5.94,0,0,0,4.82,2.15c2.54,0,3.75-1.46,3.75-3C367.61,315.45,365.55,314.84,363.72,314.37Z"/><path class="cls-3" d="M375.39,311.18a5.71,5.71,0,0,1,3.88-1.61c3,0,5.23,2,5.23,5.63v7.49h-2.68V315.2a3.06,3.06,0,0,0-3.09-3.21c-2.17,0-3.34,1.53-3.34,3.75v6.95h-2.67V304h2.67Z"/><path class="cls-3" d="M388.72,317.2a4.06,4.06,0,0,0,4,3.35,4.74,4.74,0,0,0,3.88-2l1.74,1.74a7.42,7.42,0,0,1-5.62,2.66,6.78,6.78,0,0,1-6.69-6.82,6.55,6.55,0,0,1,6.56-6.56,6.13,6.13,0,0,1,6.29,6.3l-.15,1.33Zm.11-2.27h7.44a3.57,3.57,0,0,0-3.67-3.07A3.8,3.8,0,0,0,388.83,314.93Z"/><path class="cls-3" d="M406.93,313.06a3.55,3.55,0,0,0-2.42-1.07c-.91,0-1.87.45-1.87,1.33s.89,1.3,1.7,1.52c2.65.7,4.86,1.45,4.86,4.1,0,2-1.72,4-4.82,4a6.36,6.36,0,0,1-4.95-2.27l1.74-1.74a4.37,4.37,0,0,0,3.21,1.61c1.16,0,2.14-.44,2.14-1.61,0-.84-.89-1.29-1.69-1.51-2.65-.73-4.87-1.43-4.87-4.11,0-1.79,1.73-3.75,4.55-3.75a5.71,5.71,0,0,1,4.16,1.75Z"/><path class="cls-3" d="M412.28,305.56h2.41v4.28h2.67v2.41h-2.67v6.66a1.62,1.62,0,0,0,.45,1.18c.89.89,2.35.2,2.5.2v2.4a6.19,6.19,0,0,1-1.88.26q-3.75,0-3.74-4v-6.69H409.6v-2.41H411c.89,0,1.33-.53,1.33-1.6Z"/><path class="cls-3" d="M426.94,322.69v-1.33a5.6,5.6,0,0,1-3.88,1.59c-2.85,0-4.55-2-4.55-3.74,0-2.19,1.52-3.64,3.74-4l4.69-.81a2.46,2.46,0,0,0-2.68-2.4c-1.58,0-2.29.58-3.34,1.74L419.18,312a6.48,6.48,0,0,1,5.08-2.42c3.31,0,5.36,2.24,5.36,4.82v8.3Zm0-6.16-4.15.67a1.77,1.77,0,0,0-1.61,1.74c0,1,1.16,1.61,2.29,1.61C427.33,320.55,426.91,316.62,426.94,316.53Z"/><path class="cls-3" d="M438.57,315.2l5.36,7.49H441l-4.14-5.75-2,2.14v3.61h-2.66v-16.1l1.31-2.64h1.35v11.64l5.49-5.75h3.22Z"/><path class="cls-3" d="M450,309.57a6.69,6.69,0,1,1-6.69,6.7A6.79,6.79,0,0,1,450,309.57Zm0,2.42a4.29,4.29,0,1,0,4,4.28A4.15,4.15,0,0,0,450,312Z"/><path class="cls-3" d="M461.42,322.69l-5.23-12.85H459l3.75,9.37,3.75-9.37h2.81l-5.23,12.85Z"/><path class="cls-3" d="M429.6,301l-5.21-12.82h2.8l3.74,9.35,3.74-9.35h2.81l-5.75,14.15a10.26,10.26,0,0,1-2,3.32,3.29,3.29,0,0,1-2.43.95,7.91,7.91,0,0,1-1-.06,3.7,3.7,0,0,1-.69-.15l-.18-.05v-2.41a3.72,3.72,0,0,0,1.34.27c1,0,1.77-.63,2.27-1.87Z"/><polygon class="cls-3" points="103.62 283.77 103.62 322.72 94.2 322.72 94.2 286.91 103.62 283.77"/><polygon class="cls-3" points="118.06 278.96 118.06 322.72 108.37 322.72 108.37 282.19 118.06 278.96"/><polygon class="cls-3" points="132.88 274.02 132.88 322.72 122.94 322.72 122.94 277.34 132.88 274.02"/><polygon class="cls-3" points="156.91 300.97 153.97 300.97 153.97 292.79 144.7 292.79 144.7 300.97 141.76 300.97 141.76 282.19 144.7 282.19 144.7 290.11 153.97 290.11 153.97 282.19 156.91 282.19 156.91 300.97"/><polygon class="cls-3" points="171.5 288.1 171.5 300.97 168.82 300.97 168.82 292.52 162.11 300.97 159.7 300.97 159.7 288.1 162.39 288.1 162.39 296.54 169.09 288.1 171.5 288.1"/><polygon class="cls-3" points="180.67 293.47 186.03 300.97 183.08 300.97 178.93 295.21 176.91 297.36 176.91 300.97 174.22 300.97 174.22 288.1 176.91 288.1 176.91 293.86 182.41 288.1 185.63 288.1 180.67 293.47"/><path class="cls-3" d="M192.64,287.82a6.71,6.71,0,1,1-6.71,6.71A6.8,6.8,0,0,1,192.64,287.82Zm0,2.42a4.3,4.3,0,1,0,4,4.29A4.16,4.16,0,0,0,192.64,290.24Z"/><path class="cls-3" d="M212.92,288.1V301h-2.69V290.51h-4.55v1.35a22.69,22.69,0,0,1-.59,5.8c-.62,2.27-1.47,3.57-3.84,3.57a6.2,6.2,0,0,1-1.61-.26v-2.55a2.35,2.35,0,0,0,2.23-.3c1-1,1.12-4.86,1.12-6.27V288.1Z"/><path class="cls-3" d="M223.51,301v-1.33a5.62,5.62,0,0,1-3.89,1.59c-2.85,0-4.55-2-4.55-3.74,0-2.21,1.51-3.66,3.74-4l4.7-.82a2.23,2.23,0,0,0-.75-1.71,2.76,2.76,0,0,0-1.93-.7,3.74,3.74,0,0,0-3.35,1.75l-1.75-1.75a6.53,6.53,0,0,1,5.1-2.42c3.32,0,5.37,2.25,5.37,4.83V301Zm0-6.17-4.16.67a1.76,1.76,0,0,0-1.61,1.74c0,1,1.17,1.61,2.29,1.61C223.9,298.82,223.48,294.89,223.51,294.8Z"/><path class="cls-3" d="M240.94,288.1V301h-2.68v-8.45L231.55,301h-2.41V288.1h2.69v8.44l6.7-8.44Zm-4-5.91h2a3.89,3.89,0,0,1-7.78,0h2a1.88,1.88,0,0,0,3.76,0Z"/><polygon class="cls-3" points="164.29 322.72 141.76 322.72 141.76 303.94 144.7 303.94 144.7 320.04 151.54 320.04 151.54 303.94 154.5 303.94 154.5 320.04 161.34 320.04 161.34 303.94 164.29 303.94 164.29 322.72"/><path class="cls-3" d="M168.68,317.22a4.05,4.05,0,0,0,4,3.35,4.75,4.75,0,0,0,3.89-2l1.74,1.74a7.51,7.51,0,0,1-5.63,2.67,6.78,6.78,0,0,1-6.7-6.84,6.57,6.57,0,0,1,6.56-6.57,6.13,6.13,0,0,1,6.31,6.31l-.14,1.34Zm.12-2.28h7.45a3.59,3.59,0,0,0-3.68-3.08A3.8,3.8,0,0,0,168.8,314.94Z"/><path class="cls-3" d="M187.19,309.57a6.77,6.77,0,0,1,5.22,2.55l-1.74,1.75a4.57,4.57,0,0,0-3.48-1.88,4.3,4.3,0,0,0,0,8.58,4.63,4.63,0,0,0,3.61-2l1.75,1.74a7.19,7.19,0,0,1-5.36,2.67,6.71,6.71,0,1,1,0-13.41Z"/><polygon class="cls-3" points="193.41 309.84 204.94 309.84 204.94 312.25 200.51 312.25 200.51 322.72 197.84 322.72 197.84 312.25 193.41 312.25 193.41 309.84"/><path class="cls-3" d="M214.12,322.72v-1.34a5.61,5.61,0,0,1-3.89,1.6c-2.86,0-4.56-2-4.56-3.74,0-2.21,1.51-3.66,3.74-4l4.71-.81a2.48,2.48,0,0,0-2.69-2.41,3.77,3.77,0,0,0-3.35,1.74L206.34,312a6.48,6.48,0,0,1,5.09-2.42c3.32,0,5.37,2.24,5.37,4.83v8.32Zm0-6.17-4.17.67a1.77,1.77,0,0,0-1.61,1.74c0,1,1.17,1.61,2.29,1.61C214.5,320.57,214.09,316.64,214.12,316.55Z"/><polygon class="cls-3" points="225.68 315.21 231.03 322.72 228.09 322.72 223.93 316.96 221.92 319.11 221.92 322.72 219.23 322.72 219.23 309.84 221.92 309.84 221.92 315.61 227.42 309.84 230.64 309.84 225.68 315.21"/><path class="cls-3" d="M237.65,309.57a6.71,6.71,0,1,1-6.71,6.71A6.79,6.79,0,0,1,237.65,309.57Zm0,2.42a4.3,4.3,0,1,0,4,4.29A4.16,4.16,0,0,0,237.65,312Z"/><path class="cls-3" d="M252.46,309.84c2.66,0,4,1.58,4,3.36a3.08,3.08,0,0,1-1.47,2.68,3.36,3.36,0,0,1,2.15,3.08c0,2.42-1.92,3.76-4.43,3.76h-6.44V309.84Zm0,2.28H249v2.69h3.48a1.35,1.35,0,1,0,0-2.69ZM249,317v3.48h3.75a1.63,1.63,0,0,0,1.75-1.74,1.7,1.7,0,0,0-1.75-1.74Z"/></g></g></svg>