<svg xmlns="http://www.w3.org/2000/svg" viewBox="0 0 1600.59 1085.01"><defs><style>.cls-1{fill:#9cff00;}</style></defs><g id="Layer_2" data-name="Layer 2"><g id="Layer_1-2" data-name="Layer 1"><path class="cls-1" d="M863.54,40.74a2.4,2.4,0,0,0,3.39,0L879.63,28l12.7,12.7a2.4,2.4,0,0,0,3.39,0,2.4,2.4,0,0,0,0-3.4L883,24.65,895.72,12a2.4,2.4,0,1,0-3.39-3.39l-12.7,12.69L866.93,8.56A2.4,2.4,0,1,0,863.54,12l12.7,12.7-12.7,12.69A2.4,2.4,0,0,0,863.54,40.74Z"/><path class="cls-1" d="M1066.05,6.16a2.4,2.4,0,0,0-3.39,3.39l15.09,15.1-15.09,15.09a2.4,2.4,0,0,0,3.39,3.4l16.79-16.8a2.4,2.4,0,0,0,0-3.39Z"/><path class="cls-1" d="M1069.15,24.65a2.39,2.39,0,0,0-2.4-2.4h-43.18a2.4,2.4,0,0,0,0,4.8h43.18A2.4,2.4,0,0,0,1069.15,24.65Z"/><path class="cls-1" d="M1210.19,43.14a2.4,2.4,0,0,0,3.4-3.4l-15.1-15.09,15.1-15.1a2.4,2.4,0,0,0-3.4-3.39L1193.4,23a2.39,2.39,0,0,0,0,3.39Z"/><path class="cls-1" d="M1207.09,24.65a2.41,2.41,0,0,0,2.4,2.4h43.18a2.4,2.4,0,0,0,0-4.8h-43.18A2.4,2.4,0,0,0,1207.09,24.65Z"/><path class="cls-1" d="M1396.11,33.54a2.4,2.4,0,0,0,3.39-3.4l-10.29-10.29,10.29-10.3a2.39,2.39,0,0,0,0-3.39,2.4,2.4,0,0,0-3.39,0l-12,12a2.4,2.4,0,0,0,0,3.39Z"/><path class="cls-1" d="M1397.81,19.85a2.4,2.4,0,0,0,2.4,2.4h12a4.8,4.8,0,0,1,4.8,4.8V41.44a2.4,2.4,0,1,0,4.8,0V27.05a9.6,9.6,0,0,0-9.6-9.6h-12A2.39,2.39,0,0,0,1397.81,19.85Z"/><path class="cls-1" d="M1584,19.85l-10.3,10.3a2.4,2.4,0,0,0,3.4,3.39l12-12a4.19,4.19,0,0,0,.7-1.7,2.38,2.38,0,0,0-.7-1.7l-12-12a2.4,2.4,0,0,0-3.4,3.39Z"/><path class="cls-1" d="M1553.81,43.84a2.4,2.4,0,0,0,2.4-2.4V27.05a4.8,4.8,0,0,1,4.8-4.8h12a2.4,2.4,0,1,0,0-4.8h-12a9.6,9.6,0,0,0-9.6,9.6V41.44A2.4,2.4,0,0,0,1553.81,43.84Z"/><path class="cls-1" d="M875,210.9a2.38,2.38,0,0,0,1.84.87H877a2.4,2.4,0,0,0,1.86-1.05l19.6-28.79a2.4,2.4,0,0,0-4-2.7l-17.8,26.16-12-14.35a2.4,2.4,0,0,0-3.69,3.07Z"/><path class="cls-1" d="M1047.08,191.14a2.4,2.4,0,1,0-3.84,2.88l7.2,9.59a2.39,2.39,0,0,0,3.83,0l14.4-19.19a2.4,2.4,0,1,0-3.84-2.88l-12.47,16.63Z"/><path class="cls-1" d="M1052.36,178.18h-9.6a9.62,9.62,0,0,0-9.6,9.6V207a9.62,9.62,0,0,0,9.6,9.6H1062a9.62,9.62,0,0,0,9.6-9.6v-9.6a2.4,2.4,0,1,0-4.8,0V207a4.8,4.8,0,0,1-4.8,4.8h-19.19a4.8,4.8,0,0,1-4.8-4.8V187.78a4.8,4.8,0,0,1,4.8-4.8h9.6a2.4,2.4,0,1,0,0-4.8Z"/><path class="cls-1" d="M1244.81,185.35a4.78,4.78,0,0,0-4.14-2.37H1207.1a4.81,4.81,0,0,0-4.2,7.14l16.87,23a4.8,4.8,0,0,0,8.22,0l16.88-23A4.78,4.78,0,0,0,1244.81,185.35Zm-20.93,25.31-16.77-22.88h33.54Z"/><path class="cls-1" d="M1385.83,211.77h33.56a4.81,4.81,0,0,0,4.2-7.14l-16.87-23a4.8,4.8,0,0,0-8.22,0l-16.87,23a4.81,4.81,0,0,0,4.2,7.14Zm16.78-27.68L1419.38,207h-33.54Z"/><path class="cls-1" d="M1570.6,216.57a19.2,19.2,0,1,0-19.19-19.2A19.22,19.22,0,0,0,1570.6,216.57Zm0-33.59a14.4,14.4,0,1,1-14.39,14.39A14.41,14.41,0,0,1,1570.6,183Z"/><path class="cls-1" d="M878.19,388.75a2.4,2.4,0,0,0,2.88,0c.41-.31,10.23-7.7,13.94-12.51,3.13-4,4.44-8.75,3.51-12.58a10,10,0,0,0-5.76-6.76A11.94,11.94,0,0,0,879.63,359a11.92,11.92,0,0,0-13.13-2.07,10,10,0,0,0-5.76,6.76c-.93,3.83.38,8.54,3.5,12.58C868,381.05,877.77,388.44,878.19,388.75Zm-12.79-24a5.24,5.24,0,0,1,3.13-3.54,7,7,0,0,1,3-.68,7.3,7.3,0,0,1,6.08,3.41,2.5,2.5,0,0,0,4.08,0,7.13,7.13,0,0,1,9.06-2.73,5.24,5.24,0,0,1,3.13,3.54c.58,2.4-.43,5.66-2.64,8.52-2.54,3.29-8.76,8.29-11.59,10.49-2.83-2.2-9-7.2-11.59-10.49C865.83,370.45,864.82,367.19,865.4,364.79Z"/><path class="cls-1" d="M1076.35,379.7a2.4,2.4,0,1,0-4.8,0,4.81,4.81,0,0,1-4.8,4.8H1038a4.81,4.81,0,0,1-4.8-4.8,2.4,2.4,0,1,0-4.79,0,9.6,9.6,0,0,0,9.59,9.59h28.79A9.61,9.61,0,0,0,1076.35,379.7Z"/><path class="cls-1" d="M1052.38,346.11a2.4,2.4,0,0,0-2.39,2.4v20.63l-3.13-3.13a2.4,2.4,0,1,0-3.4,3.39l7.2,7.2a2.4,2.4,0,0,0,3.39,0l7.2-7.2a2.4,2.4,0,0,0-3.39-3.39l-3.08,3.07V348.51A2.4,2.4,0,0,0,1052.38,346.11Z"/><path class="cls-1" d="M1245.47,377.3a2.39,2.39,0,0,0-2.39,2.4,4.81,4.81,0,0,1-4.8,4.8h-28.79a4.81,4.81,0,0,1-4.8-4.8,2.4,2.4,0,0,0-4.8,0,9.61,9.61,0,0,0,9.6,9.59h28.79a9.6,9.6,0,0,0,9.59-9.59A2.39,2.39,0,0,0,1245.47,377.3Z"/><path class="cls-1" d="M1223.91,377.3a2.4,2.4,0,0,0,2.4-2.4V354.33l3.08,3.07a2.37,2.37,0,0,0,1.69.71,2.41,2.41,0,0,0,1.7-4.1l-7.2-7.2a2.41,2.41,0,0,0-3.4,0L1215,354a2.4,2.4,0,1,0,3.39,3.39l3.13-3.13V374.9A2.41,2.41,0,0,0,1223.91,377.3Z"/><path class="cls-1" d="M1417.71,388.59a2.4,2.4,0,0,0,3.39,0,2.41,2.41,0,0,0,0-3.39l-11.57-11.57a14.39,14.39,0,1,0-26.11-8.33A14.36,14.36,0,0,0,1406.14,377Zm-19.9-13.69a9.6,9.6,0,1,1,9.6-9.6A9.61,9.61,0,0,1,1397.81,374.9Z"/><path class="cls-1" d="M1570.6,377.3a7.2,7.2,0,1,0-7.2-7.2A7.21,7.21,0,0,0,1570.6,377.3Zm0-9.6a2.4,2.4,0,1,1-2.4,2.4A2.4,2.4,0,0,1,1570.6,367.7Z"/><path class="cls-1" d="M1551.41,374.9l.35,0a2.39,2.39,0,0,1,2.28,1.18,5.09,5.09,0,0,1,.64,1.55,2.36,2.36,0,0,1-.74,2.42l-.3.26a4.81,4.81,0,0,0,0,6.79,4.92,4.92,0,0,0,6.78,0l.26-.3a2.37,2.37,0,0,1,2.42-.74,5.17,5.17,0,0,1,1.56.65,2.37,2.37,0,0,1,1.18,2.23l0,.39a4.8,4.8,0,0,0,9.6,0l0-.34a2.39,2.39,0,0,1,1.17-2.28,5.28,5.28,0,0,1,1.56-.65,2.38,2.38,0,0,1,2.43.74l.25.3a4.92,4.92,0,0,0,6.79,0,4.82,4.82,0,0,0,0-6.78l-.27-.23a2.38,2.38,0,0,1-.78-2.45,5.12,5.12,0,0,1,.65-1.55,2.35,2.35,0,0,1,2.23-1.18l.39,0a4.8,4.8,0,0,0,0-9.6l-.35,0a2.38,2.38,0,0,1-2.27-1.17,5.22,5.22,0,0,1-.65-1.55,2.39,2.39,0,0,1,.74-2.43l.31-.26a4.82,4.82,0,0,0,0-6.78,4.92,4.92,0,0,0-6.79,0l-.25.3a2.39,2.39,0,0,1-2.43.74,5.09,5.09,0,0,1-1.55-.64,2.36,2.36,0,0,1-1.18-2.23l0-.4a4.8,4.8,0,0,0-9.6,0l0,.35a2.35,2.35,0,0,1-1.17,2.27,4.93,4.93,0,0,1-1.56.65,2.35,2.35,0,0,1-2.42-.74l-.26-.3a4.91,4.91,0,0,0-6.78,0,4.8,4.8,0,0,0,0,6.78l.26.23a2.37,2.37,0,0,1,.78,2.46,5,5,0,0,1-.64,1.54,2.37,2.37,0,0,1-2.23,1.19l-.4,0a4.8,4.8,0,0,0,0,9.6Zm6.7-8.21a10.21,10.21,0,0,0,1.25-3,7.16,7.16,0,0,0-1.4-6.23,7.16,7.16,0,0,0,6.23,1.4,10.38,10.38,0,0,0,3-1.25,3.77,3.77,0,1,1,6.81,0,10.21,10.21,0,0,0,3,1.25,7.19,7.19,0,0,0,6.24-1.4,7.1,7.1,0,0,0-1.4,6.23,9.7,9.7,0,0,0,1.25,3,7.1,7.1,0,0,0,5.38,3.41,7.15,7.15,0,0,0-5.38,3.41,10,10,0,0,0-1.26,3,7.16,7.16,0,0,0,1.41,6.24,7.13,7.13,0,0,0-6.24-1.4,9.7,9.7,0,0,0-3,1.25,3.77,3.77,0,1,1-6.82,0,9.93,9.93,0,0,0-3-1.24,7.24,7.24,0,0,0-1.74-.21,7.12,7.12,0,0,0-4.49,1.61,7.19,7.19,0,0,0,1.4-6.24,10.21,10.21,0,0,0-1.25-3,7.18,7.18,0,0,0-5.39-3.41A7.13,7.13,0,0,0,1558.11,366.69Z"/><path class="cls-1" d="M878.93,514.74a2.42,2.42,0,0,0-3.4,0l-9.59,9.6a2.39,2.39,0,0,0,0,3.39l7.19,7.2a2.4,2.4,0,0,0,3.4-3.39L871,526l7.9-7.9A2.42,2.42,0,0,0,878.93,514.74Z"/><path class="cls-1" d="M893.32,557.93l-7.2-7.2a2.4,2.4,0,1,0-3.39,3.39l5.5,5.5-7.9,7.9a2.4,2.4,0,1,0,3.39,3.39l9.6-9.59A2.39,2.39,0,0,0,893.32,557.93Z"/><path class="cls-1" d="M879.63,562a2.4,2.4,0,0,0,0-4.8,14.4,14.4,0,0,1-14.39-14.39,2.4,2.4,0,1,0-4.8,0A19.21,19.21,0,0,0,879.63,562Z"/><path class="cls-1" d="M896.42,545.23a2.4,2.4,0,0,0,2.4-2.4,19.21,19.21,0,0,0-19.19-19.19,2.4,2.4,0,1,0,0,4.79A14.41,14.41,0,0,1,894,542.83,2.41,2.41,0,0,0,896.42,545.23Z"/><path class="cls-1" d="M1053.06,570.91a2.38,2.38,0,0,0,3.39,0l9.6-9.59a2.41,2.41,0,0,0,0-3.39l-7.2-7.2a2.4,2.4,0,1,0-3.39,3.39l5.5,5.5-7.9,7.9A2.39,2.39,0,0,0,1053.06,570.91Z"/><path class="cls-1" d="M1071.55,542.83A19.2,19.2,0,1,0,1052.36,562a2.4,2.4,0,1,0,0-4.8,14.4,14.4,0,1,1,14.39-14.39,2.4,2.4,0,1,0,4.8,0Z"/><path class="cls-1" d="M1234.68,559.62h-9.6a2.4,2.4,0,1,0,0,4.8h9.6a9.62,9.62,0,0,0,9.6-9.6v-24a9.61,9.61,0,0,0-9.6-9.59h-9.6a2.4,2.4,0,1,0,0,4.8h9.6a4.8,4.8,0,0,1,4.8,4.79v24A4.8,4.8,0,0,1,1234.68,559.62Z"/><path class="cls-1" d="M1203.49,542.8a2.4,2.4,0,0,0,2.4,2.4h20.63l-3.13,3.13a2.4,2.4,0,0,0,3.39,3.39l7.2-7.2a2.41,2.41,0,0,0,0-3.39l-7.2-7.19a2.4,2.4,0,1,0-3.39,3.39l3.07,3.07h-20.57A2.41,2.41,0,0,0,1203.49,542.8Z"/><path class="cls-1" d="M1421.29,537.7a2.4,2.4,0,0,0,2.4-2.4V524.81a2.4,2.4,0,0,0-2.4-2.4h-10.18a2.4,2.4,0,1,0,0,4.8h4.47l-9.9,10.2a2.4,2.4,0,0,0,3.45,3.34l9.76-10.06v4.61A2.39,2.39,0,0,0,1421.29,537.7Z"/><path class="cls-1" d="M1399.48,547.25a2.39,2.39,0,0,0-3.39.06l-9.76,10.06v-4.62a2.4,2.4,0,1,0-4.8,0v10.5a2.39,2.39,0,0,0,2.4,2.4h10.18a2.4,2.4,0,1,0,0-4.8h-4.47l9.89-10.2A2.4,2.4,0,0,0,1399.48,547.25Z"/><path class="cls-1" d="M1570.71,519.82a17.57,17.57,0,0,0-15.42,26l9.67,17.72a6.3,6.3,0,0,0,11.07,0l9.92-18.18a17.26,17.26,0,0,0-15.24-25.52Zm11,23.22-9.92,18.19a1.51,1.51,0,0,1-2.65,0l-9.67-17.72a12.77,12.77,0,0,1,11.31-18.88A12.46,12.46,0,0,1,1581.74,543Z"/><path class="cls-1" d="M1570.54,529.87a8.16,8.16,0,1,0,8.16,8.16A8.17,8.17,0,0,0,1570.54,529.87Zm0,11.52a3.36,3.36,0,1,1,3.36-3.36A3.37,3.37,0,0,1,1570.54,541.39Z"/><path class="cls-1" d="M865.23,694v40.79a2.4,2.4,0,1,0,4.8,0V694a2.4,2.4,0,0,0-4.8,0Z"/><path class="cls-1" d="M893.83,700.05a4.92,4.92,0,0,0-4.79-3.69H874.83a2.4,2.4,0,0,0,0,4.8h14.3a.46.46,0,0,1,.09.32.29.29,0,0,1-.16.28,2.63,2.63,0,0,0-.63.57l-3.51,4.57a2.4,2.4,0,0,0,0,2.92l3.48,4.54a2.67,2.67,0,0,0,.63.58.31.31,0,0,1,.17.28c0,.18-.06.31-.16.34H874.83a2.4,2.4,0,1,0,0,4.79h14.31a4.85,4.85,0,0,0,4.66-3.65,5.19,5.19,0,0,0-1.81-5.55l-2.14-2.79,2.16-2.81A5.16,5.16,0,0,0,893.83,700.05Z"/><path class="cls-1" d="M1035.56,703.43V732.6a4.71,4.71,0,0,0,2.61,4.29,4.12,4.12,0,0,0,1.74.39,4.21,4.21,0,0,0,2.67-1l9.78-8.16,9.75,8.14a4.12,4.12,0,0,0,4.42.59,4.71,4.71,0,0,0,2.62-4.3V703.43c0-5.29-3.84-9.6-8.57-9.6h-16.45C1039.41,693.83,1035.56,698.14,1035.56,703.43Zm28.79,0v28.46l-10.46-8.71a2.4,2.4,0,0,0-3.07,0l-10.46,8.72V703.43c0-2.6,1.73-4.8,3.77-4.8h16.45C1062.63,698.63,1064.35,700.83,1064.35,703.43Z"/><path class="cls-1" d="M1246,707.57a4.29,4.29,0,0,0-4.13-3h-10.61l-3.24-10a4.35,4.35,0,0,0-8.28,0l-3.24,10h-10.6a4.35,4.35,0,0,0-2.59,7.84l8.63,6.41-3.28,10.24a4.35,4.35,0,0,0,6.7,4.85l8.53-6.21,8.52,6.16a4.35,4.35,0,0,0,6.69-4.86l-3.28-10.17,8.64-6.42A4.28,4.28,0,0,0,1246,707.57Zm-13.3,7.62a4.33,4.33,0,0,0-1.54,4.83l3,9.17-7.68-5.55a4.35,4.35,0,0,0-5.12,0l-7.68,5.6,3-9.25a4.34,4.34,0,0,0-1.55-4.82l-7.81-5.8h9.57a4.34,4.34,0,0,0,4.14-3l2.92-9,2.92,9a4.35,4.35,0,0,0,4.14,3h9.58Z"/><path class="cls-1" d="M1417,696.36h-28.78a9.61,9.61,0,0,0-9.6,9.6v19.19a9.61,9.61,0,0,0,9.6,9.6H1417a9.61,9.61,0,0,0,9.6-9.6V706A9.61,9.61,0,0,0,1417,696.36Zm0,4.8a4.75,4.75,0,0,1,2.79.91L1402.61,715l-17.18-12.89a4.7,4.7,0,0,1,2.79-.91ZM1388.22,730a5.34,5.34,0,0,1-.71-.07l6.94-5.21a2.4,2.4,0,1,0-2.88-3.84l-7.86,5.9a4.57,4.57,0,0,1-.29-1.58V706.56l17.75,13.31a2.4,2.4,0,0,0,2.88,0l17.75-13.31v18.59a4.57,4.57,0,0,1-.29,1.58l-7.87-5.9a2.4,2.4,0,0,0-2.87,3.84l6.94,5.21a5.51,5.51,0,0,1-.71.07Z"/><path class="cls-1" d="M1556.21,734.75H1585a9.61,9.61,0,0,0,9.59-9.6V706.9a4.69,4.69,0,0,0-1.47-3.4l-1.23-1.09a2.82,2.82,0,0,0-.18-.29,2.38,2.38,0,0,0-1-.78L1572.19,685a2.41,2.41,0,0,0-3.18,0l-18.48,16.37a2.32,2.32,0,0,0-1,.78,2.38,2.38,0,0,0-.18.3L1548,703.6a4.66,4.66,0,0,0-1.37,3.31v18.24A9.61,9.61,0,0,0,1556.21,734.75Zm0-4.8a5.51,5.51,0,0,1-.71-.07l6.94-5.21a2.4,2.4,0,0,0-2.87-3.84l-7.92,5.94a4.62,4.62,0,0,1-.31-1.62V707.09l.35-.32,17.47,13.1a2.4,2.4,0,0,0,2.88,0l17.54-13.15.21.18v18.25a4.57,4.57,0,0,1-.29,1.58l-7.86-5.9a2.4,2.4,0,0,0-2.88,3.84l6.94,5.21a5.35,5.35,0,0,1-.7.07Zm14.39-40,15.31,13.5L1570.6,715l-15.25-11.44Z"/><path class="cls-1" d="M698.89,39h2.4v7.2a2.4,2.4,0,0,0,1.2,2.07,2.33,2.33,0,0,0,1.2.33,2.41,2.41,0,0,0,1.19-.32L721.12,39h6.56a9.61,9.61,0,0,0,9.6-9.6V10.25a9.61,9.61,0,0,0-9.6-9.59H698.89a9.6,9.6,0,0,0-9.59,9.59V29.44A9.6,9.6,0,0,0,698.89,39ZM694.1,10.25a4.81,4.81,0,0,1,4.79-4.8h28.79a4.81,4.81,0,0,1,4.8,4.8V29.44a4.8,4.8,0,0,1-4.8,4.8h-7.2a2.41,2.41,0,0,0-1.19.32l-13.2,7.54V36.64a2.4,2.4,0,0,0-2.4-2.4h-4.8a4.8,4.8,0,0,1-4.79-4.8Z"/><path class="cls-1" d="M706.09,22.25a2.4,2.4,0,1,0-2.4-2.4A2.4,2.4,0,0,0,706.09,22.25Z"/><circle class="cls-1" cx="713.29" cy="19.85" r="2.4"/><path class="cls-1" d="M720.48,22.25a2.4,2.4,0,1,0-2.39-2.4A2.4,2.4,0,0,0,720.48,22.25Z"/><path class="cls-1" d="M567.76,10.25H546.17a9.62,9.62,0,0,0-9.6,9.6v12a9.62,9.62,0,0,0,9.6,9.6H555l8.95,6.72A2.41,2.41,0,0,0,567.64,47l1.9-5.73a9.61,9.61,0,0,0,7.82-9.43v-12A9.62,9.62,0,0,0,567.76,10.25Zm4.8,21.59a4.81,4.81,0,0,1-4.8,4.8,2.41,2.41,0,0,0-2.28,1.64l-1.34,4-6.94-5.2a2.4,2.4,0,0,0-1.44-.48h-9.59a4.8,4.8,0,0,1-4.8-4.8v-12a4.8,4.8,0,0,1,4.8-4.8h21.59a4.81,4.81,0,0,1,4.8,4.8Z"/><path class="cls-1" d="M527,31.84V39a2.41,2.41,0,0,0,2.4,2.4,2.41,2.41,0,0,0,1.19-.32l4.19-2.4a2.4,2.4,0,1,0-2.38-4.16l-.61.35V29.44a2.39,2.39,0,0,0-2.39-2.39h-4.8a4.81,4.81,0,0,1-4.8-4.8v-12a4.81,4.81,0,0,1,4.8-4.8h25.83A4.82,4.82,0,0,1,554,7.05a2.4,2.4,0,1,0,3.57-3.2A9.6,9.6,0,0,0,550.41.66H524.58a9.61,9.61,0,0,0-9.6,9.59v12a9.61,9.61,0,0,0,9.6,9.59Z"/><path class="cls-1" d="M551,24.65a2.4,2.4,0,1,0,2.4,2.4A2.39,2.39,0,0,0,551,24.65Z"/><path class="cls-1" d="M558.16,24.65a2.4,2.4,0,1,0,2.4,2.4A2.4,2.4,0,0,0,558.16,24.65Z"/><path class="cls-1" d="M565.36,24.65a2.4,2.4,0,1,0,2.4,2.4A2.4,2.4,0,0,0,565.36,24.65Z"/><path class="cls-1" d="M384.37.2l-42.51,14a4.8,4.8,0,0,0-2.15,7.94l7,8.15V43.84a2.4,2.4,0,0,0,4.1,1.69l5.62-5.62L363.52,46a4.75,4.75,0,0,0,3.38,1.41,4.65,4.65,0,0,0,1.22-.16,4.77,4.77,0,0,0,3.34-3.08L390.24,6.53a3.61,3.61,0,0,0,.16-.42,4.81,4.81,0,0,0-6-5.91ZM343.3,19s0-.13,0-.17l29.61-9.77L349.5,26.2Zm8.23,11.67,27.7-20.31-27.7,27.7Zm15.55,11.52c-.06.13-.26.15-.3.3l-6.93-6,20.08-20.08Z"/><path class="cls-1" d="M169.24,12.65h31.18a2.4,2.4,0,1,0,0-4.8H169.24a2.4,2.4,0,0,0,0,4.8Z"/><path class="cls-1" d="M169.24,27.05h38.38a2.4,2.4,0,1,0,0-4.8H169.24a2.4,2.4,0,0,0,0,4.8Z"/><path class="cls-1" d="M169.24,41.44h31.18a2.4,2.4,0,1,0,0-4.8H169.24a2.4,2.4,0,0,0,0,4.8Z"/><path class="cls-1" d="M19.34,12.65H38.53a2.4,2.4,0,0,0,0-4.8H19.34a2.4,2.4,0,1,0,0,4.8Z"/><path class="cls-1" d="M19.34,27.05H45.73a2.4,2.4,0,0,0,0-4.8H19.34a2.4,2.4,0,1,0,0,4.8Z"/><path class="cls-1" d="M19.34,41.44H38.53a2.4,2.4,0,1,0,0-4.8H19.34a2.4,2.4,0,1,0,0,4.8Z"/><path class="cls-1" d="M9.74,12.65a2.4,2.4,0,1,0-2.4-2.4A2.39,2.39,0,0,0,9.74,12.65Z"/><circle class="cls-1" cx="9.74" cy="24.65" r="2.4"/><circle class="cls-1" cx="9.74" cy="39.04" r="2.4"/><path class="cls-1" d="M732.48,207V187.78a9.61,9.61,0,0,0-9.6-9.6H703.69a9.61,9.61,0,0,0-9.59,9.6V207a9.61,9.61,0,0,0,9.59,9.6h19.19A9.61,9.61,0,0,0,732.48,207Zm-33.59,0V187.78a4.81,4.81,0,0,1,4.8-4.8h19.19a4.8,4.8,0,0,1,4.8,4.8V207a4.8,4.8,0,0,1-4.8,4.8H703.69A4.81,4.81,0,0,1,698.89,207Z"/><path class="cls-1" d="M720.48,195h-4.79v-4.79a2.4,2.4,0,0,0-4.8,0V195h-4.8a2.4,2.4,0,1,0,0,4.8h4.8v4.8a2.4,2.4,0,1,0,4.8,0v-4.8h4.79a2.4,2.4,0,0,0,0-4.8Z"/><path class="cls-1" d="M555.76,178.18H536.57a9.61,9.61,0,0,0-9.59,9.6V207a9.61,9.61,0,0,0,9.59,9.6h19.19a9.61,9.61,0,0,0,9.6-9.6V187.78A9.61,9.61,0,0,0,555.76,178.18Zm4.8,28.79a4.8,4.8,0,0,1-4.8,4.8H536.57a4.81,4.81,0,0,1-4.8-4.8V187.78a4.81,4.81,0,0,1,4.8-4.8h19.19a4.8,4.8,0,0,1,4.8,4.8Z"/><path class="cls-1" d="M553.37,195H539a2.4,2.4,0,1,0,0,4.8h14.4a2.4,2.4,0,0,0,0-4.8Z"/><path class="cls-1" d="M341.69,194V210.4a8.57,8.57,0,0,0,8.56,8.56h16.46a8.57,8.57,0,0,0,8.56-8.56V194a8.57,8.57,0,0,0-8.56-8.57H350.25A8.57,8.57,0,0,0,341.69,194Zm28.79,0V210.4a3.78,3.78,0,0,1-3.77,3.77H350.25a3.77,3.77,0,0,1-3.76-3.77V194a3.77,3.77,0,0,1,3.76-3.77h16.46A3.78,3.78,0,0,1,370.48,194Z"/><path class="cls-1" d="M387.27,182a8.66,8.66,0,0,0-8.65-8.65H362a8.68,8.68,0,0,0-8.15,5.76,2.4,2.4,0,0,0,4.52,1.61,3.87,3.87,0,0,1,3.63-2.57h16.65a3.86,3.86,0,0,1,3.85,3.85v16.65a3.86,3.86,0,0,1-2.57,3.63,2.4,2.4,0,0,0,.81,4.66,2.25,2.25,0,0,0,.8-.14,8.67,8.67,0,0,0,5.76-8.15Z"/><path class="cls-1" d="M178.83,216.57H198a9.61,9.61,0,0,0,9.59-9.6V185.38a2.39,2.39,0,0,0-2.4-2.4H171.64a2.39,2.39,0,0,0-2.4,2.4V207A9.61,9.61,0,0,0,178.83,216.57ZM174,187.78h28.78V207a4.8,4.8,0,0,1-4.79,4.8h-19.2A4.8,4.8,0,0,1,174,207Z"/><path class="cls-1" d="M188.43,207a2.39,2.39,0,0,0,2.4-2.4v-12a2.4,2.4,0,1,0-4.8,0v12A2.39,2.39,0,0,0,188.43,207Z"/><path class="cls-1" d="M181.23,209.37a2.4,2.4,0,0,0,2.4-2.4V195a2.4,2.4,0,0,0-4.8,0v12A2.41,2.41,0,0,0,181.23,209.37Z"/><path class="cls-1" d="M195.63,209.37A2.41,2.41,0,0,0,198,207V195a2.4,2.4,0,0,0-4.8,0v12A2.4,2.4,0,0,0,195.63,209.37Z"/><path class="cls-1" d="M169.24,180.58h38.38a2.4,2.4,0,0,0,0-4.8H198v-1.71a5.49,5.49,0,0,0-5.49-5.48h-8.22a5.49,5.49,0,0,0-5.49,5.48v1.71h-9.59a2.4,2.4,0,0,0,0,4.8Zm14.39-6.51a.7.7,0,0,1,.69-.69h8.22a.7.7,0,0,1,.69.69v1.71h-9.6Z"/><path class="cls-1" d="M11.9,217.4a8.17,8.17,0,0,0,7.38-4.7,2.66,2.66,0,0,0,.35-.46L40,177a2.4,2.4,0,1,0-4.16-2.4L18.54,204.53A8.15,8.15,0,1,0,11.9,217.4Zm0-11.51a3.36,3.36,0,1,1-3.36,3.35A3.36,3.36,0,0,1,11.9,205.89Z"/><path class="cls-1" d="M36.92,204.53l-3.72-6.44a2.4,2.4,0,1,0-4.15,2.4l6.78,11.75a2.71,2.71,0,0,0,.36.46,8.15,8.15,0,1,0,.73-8.17Zm10,4.71a3.36,3.36,0,1,1-3.36-3.35A3.36,3.36,0,0,1,46.93,209.24Z"/><path class="cls-1" d="M22.26,188.73a2.4,2.4,0,0,0,2.08,1.2,2.4,2.4,0,0,0,2.08-3.59l-6.79-11.76a2.4,2.4,0,1,0-4.15,2.4Z"/><path class="cls-1" d="M712.09,356.39a5.49,5.49,0,0,0-5.49-5.48h-8.22a5.49,5.49,0,0,0-5.48,5.48v8.23a5.49,5.49,0,0,0,5.48,5.48h8.22a5.49,5.49,0,0,0,5.49-5.48Zm-4.8,8.23a.69.69,0,0,1-.69.68h-8.22a.7.7,0,0,1-.69-.68v-8.23a.7.7,0,0,1,.69-.68h8.22a.69.69,0,0,1,.69.68Z"/><path class="cls-1" d="M733.68,356.39a5.49,5.49,0,0,0-5.49-5.48H720a5.49,5.49,0,0,0-5.48,5.48v8.23A5.49,5.49,0,0,0,720,370.1h8.22a5.49,5.49,0,0,0,5.49-5.48Zm-4.8,8.23a.69.69,0,0,1-.69.68H720a.7.7,0,0,1-.69-.68v-8.23a.7.7,0,0,1,.69-.68h8.22a.69.69,0,0,1,.69.68Z"/><path class="cls-1" d="M706.6,372.5h-8.22A5.49,5.49,0,0,0,692.9,378v8.23a5.49,5.49,0,0,0,5.48,5.48h8.22a5.49,5.49,0,0,0,5.49-5.48V378A5.49,5.49,0,0,0,706.6,372.5Zm.69,13.71a.69.69,0,0,1-.69.68h-8.22a.7.7,0,0,1-.69-.68V378a.7.7,0,0,1,.69-.68h8.22a.69.69,0,0,1,.69.68Z"/><path class="cls-1" d="M733.68,386.21V378a5.49,5.49,0,0,0-5.49-5.48H720a5.49,5.49,0,0,0-5.48,5.48v8.23a5.49,5.49,0,0,0,5.48,5.48h8.22A5.49,5.49,0,0,0,733.68,386.21Zm-4.8,0a.69.69,0,0,1-.69.68H720a.7.7,0,0,1-.69-.68V378a.7.7,0,0,1,.69-.68h8.22a.69.69,0,0,1,.69.68Z"/><path class="cls-1" d="M532.46,370.1h27.42a5.49,5.49,0,0,0,5.48-5.48v-8.23a5.49,5.49,0,0,0-5.48-5.48H532.46a5.49,5.49,0,0,0-5.48,5.48v8.23A5.49,5.49,0,0,0,532.46,370.1Zm-.69-13.71a.7.7,0,0,1,.69-.68h27.42a.69.69,0,0,1,.68.68v8.23a.69.69,0,0,1-.68.68H532.46a.7.7,0,0,1-.69-.68Z"/><path class="cls-1" d="M527,386.21a5.49,5.49,0,0,0,5.48,5.48h27.42a5.49,5.49,0,0,0,5.48-5.48V378a5.49,5.49,0,0,0-5.48-5.48H532.46A5.49,5.49,0,0,0,527,378Zm4.79-8.23a.7.7,0,0,1,.69-.68h27.42a.69.69,0,0,1,.68.68v8.23a.69.69,0,0,1-.68.68H532.46a.7.7,0,0,1-.69-.68Z"/><path class="cls-1" d="M382.09,529.6l-5.81-5.82a5.48,5.48,0,0,0-7.75,0l-6.88,6.87-.57-.57a2.4,2.4,0,0,0-3.39,3.39l.57.57-9.13,9.13c-.56.57-1.41,1.42-3.76,11.76a4.67,4.67,0,0,0,4.53,5.69,4.7,4.7,0,0,0,1.05-.12c10.34-2.34,11.19-3.2,11.76-3.76l19.38-19.39A5.48,5.48,0,0,0,382.09,529.6Zm-22.63,23.6c-.4.2-2.26,1-9.41,2.79,1.66-7.3,2.43-9.17,2.62-9.58l9-9,6.22,6.21a2.54,2.54,0,0,0,.67.47ZM378.7,534l-7,7a2.54,2.54,0,0,0-.47-.67L365.05,534l6.87-6.87a.7.7,0,0,1,1,0L378.7,533A.7.7,0,0,1,378.7,534Z"/><path class="cls-1" d="M368.08,564.42h-13.2a2.4,2.4,0,0,0,0,4.8h19.19a2.4,2.4,0,0,0,0-4.8Z"/><path class="cls-1" d="M175.21,564.42H194.4a9.61,9.61,0,0,0,9.59-9.6,2.4,2.4,0,1,0-4.79,0,4.81,4.81,0,0,1-4.8,4.8H175.21a4.8,4.8,0,0,1-4.8-4.8V535.63a4.81,4.81,0,0,1,4.8-4.8h9.59a2.4,2.4,0,1,0,0-4.79h-9.59a9.6,9.6,0,0,0-9.6,9.59v19.19A9.61,9.61,0,0,0,175.21,564.42Z"/><path class="cls-1" d="M179.8,548.77a3.28,3.28,0,0,0,3.2,4,3.35,3.35,0,0,0,.71-.07c9.58-2.1,10.34-2.86,10.89-3.41L209.84,534a4.83,4.83,0,0,0,0-6.82l-4.57-4.57a4.84,4.84,0,0,0-6.83,0L183.2,537.89C182.65,538.44,181.9,539.2,179.8,548.77ZM201.87,526l4.58,4.61-3.26,3.26-4.59-4.6Zm-15.1,15.07,8.43-8.41,4.6,4.6-8.42,8.41a45.52,45.52,0,0,1-6.37,1.77A49.38,49.38,0,0,1,186.77,541.11Z"/><path class="cls-1" d="M42.13,535.63a2.4,2.4,0,0,0,2.4-2.4v-4.8a2.4,2.4,0,0,0-2.4-2.39H13.34a2.39,2.39,0,0,0-2.4,2.39v4.8a2.4,2.4,0,0,0,4.8,0v-2.4h9.59v28.79a2.4,2.4,0,0,0,0,4.8h4.8a2.4,2.4,0,1,0,0-4.8V530.83h9.6v2.4A2.39,2.39,0,0,0,42.13,535.63Z"/><path class="cls-1" d="M368.08,394.09h-13.2a2.4,2.4,0,1,0,0,4.8h19.19a2.4,2.4,0,0,0,0-4.8Z"/><path class="cls-1" d="M378.05,366.18,367.87,356a2.38,2.38,0,0,0-2.64-.51l-11.88,5.09A2.39,2.39,0,0,0,352,362l-8.48,25.44a2.4,2.4,0,0,0,2.28,3.16,2.25,2.25,0,0,0,.76-.13L372,382a2.38,2.38,0,0,0,1.45-1.33l5.08-11.87A2.39,2.39,0,0,0,378.05,366.18Zm-8.57,11.63-14.78,4.93,6.38-6.39a2.4,2.4,0,1,0-3.39-3.39l-6.38,6.39,4.92-14.79,9.4-4,7.88,7.88Z"/><path class="cls-1" d="M385.54,364.48a2.41,2.41,0,0,0-.71-1.7l-13.57-13.57a2.4,2.4,0,0,0-3.39,3.4l13.57,13.57a2.4,2.4,0,0,0,3.39,0A2.41,2.41,0,0,0,385.54,364.48Z"/><path class="cls-1" d="M698.89,562h28.79a9.61,9.61,0,0,0,9.6-9.6V538a9.62,9.62,0,0,0-9.6-9.6H716.4a3.84,3.84,0,0,1-3.12-1.74,12.81,12.81,0,0,0-10.45-5.45H694a4.69,4.69,0,0,0-4.68,4.68v26.5A9.6,9.6,0,0,0,698.89,562ZM694,526h8.79a8,8,0,0,1,6.52,3.41,8.71,8.71,0,0,0,7,3.78h11.28a4.8,4.8,0,0,1,4.8,4.8v14.39a4.8,4.8,0,0,1-4.8,4.8H698.89a4.85,4.85,0,0,1-4.85-4.8Z"/><path class="cls-1" d="M718.09,521.24a2.4,2.4,0,0,0,0,4.8h9.59a2.4,2.4,0,1,0,0-4.8Z"/><path class="cls-1" d="M562.62,521.24h-32.9a5.49,5.49,0,0,0-5.49,5.48v29.82a5.49,5.49,0,0,0,5.49,5.48h32.9a5.49,5.49,0,0,0,5.48-5.48V526.72A5.49,5.49,0,0,0,562.62,521.24Zm-21.59,36a4,4,0,0,0-3.94-3.94H529V526.72a.7.7,0,0,1,.69-.68h32.9a.69.69,0,0,1,.68.68v26.56h-8.74a4,4,0,0,0-3.94,3.94Z"/><path class="cls-1" d="M541,535.63h9.59a2.4,2.4,0,0,0,0-4.8H541a2.4,2.4,0,0,0,0,4.8Z"/><path class="cls-1" d="M553,542.83a2.4,2.4,0,1,0,0-4.8H538.63a2.4,2.4,0,1,0,0,4.8Z"/><path class="cls-1" d="M553,547.63a2.39,2.39,0,0,0-2.4-2.4H541a2.4,2.4,0,1,0,0,4.8h9.59A2.4,2.4,0,0,0,553,547.63Z"/><path class="cls-1" d="M180,394.09h16.8a9.6,9.6,0,0,0,9.59-9.59V367.7a2.39,2.39,0,0,0-.7-1.69l-12-12a2.39,2.39,0,0,0-1.69-.7H180a9.6,9.6,0,0,0-9.59,9.59v21.6A9.6,9.6,0,0,0,180,394.09Zm20.6-26.39H192v-8.6Zm-25.4-4.8a4.81,4.81,0,0,1,4.8-4.79h7.2v10.45a4,4,0,0,0,3.94,3.94h10.45v12a4.8,4.8,0,0,1-4.79,4.79H180a4.81,4.81,0,0,1-4.8-4.79Z"/><path class="cls-1" d="M49.32,382.1v-24a9.61,9.61,0,0,0-9.59-9.6h-24a9.62,9.62,0,0,0-9.6,9.6v24a9.61,9.61,0,0,0,9.6,9.59h24A9.6,9.6,0,0,0,49.32,382.1Zm-4.79,0a4.81,4.81,0,0,1-4.8,4.79h-24a4.8,4.8,0,0,1-4.8-4.79v-24a4.8,4.8,0,0,1,4.8-4.8h24a4.81,4.81,0,0,1,4.8,4.8Z"/><path class="cls-1" d="M20.54,365.3H34.93a2.4,2.4,0,1,0,0-4.79H20.54a2.4,2.4,0,1,0,0,4.79Z"/><path class="cls-1" d="M37.33,367.7H18.14a2.4,2.4,0,1,0,0,4.8H37.33a2.4,2.4,0,0,0,0-4.8Z"/><path class="cls-1" d="M34.93,374.9H20.54a2.4,2.4,0,1,0,0,4.8H34.93a2.4,2.4,0,0,0,0-4.8Z"/><path class="cls-1" d="M716,715.56h10.45a2.4,2.4,0,0,0,4.8,0v-4.8a2.4,2.4,0,0,0-.7-1.7l-12-12a2.4,2.4,0,0,0-1.69-.71h-12a9.62,9.62,0,0,0-9.6,9.6v21.59a9.62,9.62,0,0,0,9.6,9.6h6a2.4,2.4,0,0,0,4.8,0v-.34a2.38,2.38,0,0,0,0-4.13v-.33h4.79a2.4,2.4,0,0,0,0-4.8h-4.79v-4.8a2.4,2.4,0,0,0-4.8,0v4.8h-4.8a2.4,2.4,0,1,0,0,4.8h-1.2a4.81,4.81,0,0,1-4.8-4.8V706a4.81,4.81,0,0,1,4.8-4.8h7.2v10.45A4,4,0,0,0,716,715.56Zm9.46-4.8h-8.6v-8.6Z"/><path class="cls-1" d="M548.91,715.56h10.45a2.4,2.4,0,0,0,4.8,0v-4.8a2.4,2.4,0,0,0-.7-1.7l-12-12a2.4,2.4,0,0,0-1.69-.71h-12a9.61,9.61,0,0,0-9.59,9.6v21.59a9.61,9.61,0,0,0,9.59,9.6H540a2.31,2.31,0,0,0,2.24,0h5.17a2.38,2.38,0,0,0,1.79-.82l.4.4a2.4,2.4,0,1,0,3.39-3.39L549.56,730l3.39-3.39a2.4,2.4,0,0,0-3.39-3.39l-3.39,3.39-3.39-3.39a2.4,2.4,0,0,0-3.4,3.39l3.4,3.39-2.4,2.4h-2.61a4.81,4.81,0,0,1-4.8-4.8V706a4.81,4.81,0,0,1,4.8-4.8H545v10.45A4,4,0,0,0,548.91,715.56Zm9.46-4.8h-8.6v-8.6Z"/><path class="cls-1" d="M380.07,694H348.88a9.61,9.61,0,0,0-9.59,9.6v19.19a9.61,9.61,0,0,0,9.59,9.6h31.19a9.62,9.62,0,0,0,9.6-9.6V703.56A9.62,9.62,0,0,0,380.07,694Zm4.8,28.79a4.8,4.8,0,0,1-4.8,4.8H348.88a4.8,4.8,0,0,1-4.79-4.8V703.56a4.8,4.8,0,0,1,4.79-4.8h31.19a4.8,4.8,0,0,1,4.8,4.8Z"/><path class="cls-1" d="M381.4,716l-7.2-4.8a2.39,2.39,0,0,0-3,.3L363,719.67,357.41,716a2.39,2.39,0,0,0-2.66,0l-7.2,4.8a2.4,2.4,0,0,0,2.66,4l5.87-3.91,5.87,3.91a2.39,2.39,0,0,0,3-.3l8.21-8.21,5.56,3.71a2.4,2.4,0,1,0,2.66-4Z"/><path class="cls-1" d="M352.48,710.76a3.6,3.6,0,1,0-3.6-3.6A3.6,3.6,0,0,0,352.48,710.76Z"/><path class="cls-1" d="M169.24,732.35h24a2.4,2.4,0,0,0,0-4.8h-24a4.8,4.8,0,0,1-4.8-4.8V703.56a4.8,4.8,0,0,1,4.8-4.8h31.18a4.8,4.8,0,0,1,4.8,4.8v7.2a2.4,2.4,0,0,0,4.8,0v-7.2a9.61,9.61,0,0,0-9.6-9.6H169.24a9.62,9.62,0,0,0-9.6,9.6v19.19A9.62,9.62,0,0,0,169.24,732.35Z"/><path class="cls-1" d="M167.24,724.08a2.38,2.38,0,0,0,2,1.07,2.41,2.41,0,0,0,1.33-.4l5.86-3.91,5.87,3.91a2.41,2.41,0,0,0,3-.3l7.9-7.9.7.7a2.4,2.4,0,1,0,3.39-3.39l-2.4-2.4a2.39,2.39,0,0,0-3.39,0l-8.2,8.21L177.76,716a2.39,2.39,0,0,0-2.66,0l-7.19,4.8A2.39,2.39,0,0,0,167.24,724.08Z"/><path class="cls-1" d="M176.43,707.16a3.6,3.6,0,1,0-3.59,3.6A3.6,3.6,0,0,0,176.43,707.16Z"/><path class="cls-1" d="M210,718a2.4,2.4,0,0,0-4.8,0v4.8h-4.8a2.4,2.4,0,0,0,0,4.8h4.8v4.8a2.4,2.4,0,0,0,4.8,0v-4.8h4.8a2.4,2.4,0,1,0,0-4.8H210Z"/><path class="cls-1" d="M33.59,732.35a2.4,2.4,0,0,0,0-4.8H9.6a4.8,4.8,0,0,1-4.8-4.8V703.56a4.8,4.8,0,0,1,4.8-4.8H40.78a4.8,4.8,0,0,1,4.8,4.8v7.2a2.4,2.4,0,0,0,4.8,0v-7.2a9.61,9.61,0,0,0-9.6-9.6H9.6a9.61,9.61,0,0,0-9.6,9.6v19.19a9.61,9.61,0,0,0,9.6,9.6Z"/><path class="cls-1" d="M35.28,711.46a2.39,2.39,0,0,0-3.39,0l-8.2,8.21L18.12,716a2.39,2.39,0,0,0-2.66,0l-7.19,4.8a2.39,2.39,0,0,0,1.33,4.39,2.41,2.41,0,0,0,1.33-.4l5.86-3.91,5.87,3.91a2.41,2.41,0,0,0,3-.3l7.9-7.9.7.7a2.4,2.4,0,1,0,3.39-3.39Z"/><path class="cls-1" d="M16.79,707.16a3.6,3.6,0,1,0-3.6,3.6A3.6,3.6,0,0,0,16.79,707.16Z"/><path class="cls-1" d="M54.76,718.37a2.39,2.39,0,0,0-3.39,0L48,721.76l-3.39-3.39a2.4,2.4,0,0,0-3.39,3.39l3.39,3.39-3.39,3.39a2.4,2.4,0,0,0,0,3.4,2.4,2.4,0,0,0,3.39,0l3.39-3.4,3.39,3.4a2.4,2.4,0,0,0,3.39-3.4l-3.39-3.39,3.39-3.39A2.39,2.39,0,0,0,54.76,718.37Z"/><path class="cls-1" d="M387.35,897.07l-10.29-6.48a6.84,6.84,0,0,0-7-.41c-2.7,1.3-9.15,1.26-11.69-.08a6.71,6.71,0,0,0-6.75.27l-10.1,6.73a2.4,2.4,0,0,0,2.67,4l10.06-6.71a1.88,1.88,0,0,1,1.88,0c3.87,2,11.95,2.11,16,.15a2.18,2.18,0,0,1,2.23.08l10.39,6.55a2.4,2.4,0,1,0,2.56-4.06Z"/><path class="cls-1" d="M364.6,885.88a12,12,0,1,0-12-12A12,12,0,0,0,364.6,885.88Zm0-19.19a7.2,7.2,0,1,1-7.2,7.2A7.21,7.21,0,0,1,364.6,866.69Z"/><path class="cls-1" d="M171.14,894.5c4.06,2,12.14,1.88,16-.15a1.88,1.88,0,0,1,1.88,0l10.06,6.71a2.4,2.4,0,1,0,2.67-4l-10.1-6.73a6.69,6.69,0,0,0-6.74-.27c-2.55,1.34-9,1.38-11.7.08a6.84,6.84,0,0,0-7,.41L156,897.07a2.4,2.4,0,1,0,2.56,4.06l10.39-6.55A2.18,2.18,0,0,1,171.14,894.5Z"/><path class="cls-1" d="M166.72,873.89a12,12,0,1,0,12-12A12,12,0,0,0,166.72,873.89Zm19.19,0a7.2,7.2,0,1,1-7.2-7.2A7.21,7.21,0,0,1,185.91,873.89Z"/><path class="cls-1" d="M221,888.65l-7.3-4.87a5.51,5.51,0,0,0-5.55-.22c-1.66.87-6.06.9-7.85,0a5.65,5.65,0,0,0-5.78.41,2.4,2.4,0,0,0,2.77,3.92,1,1,0,0,1,.94,0c3.14,1.51,9.16,1.45,12.16-.12a.66.66,0,0,1,.68,0l7.26,4.84a2.36,2.36,0,0,0,1.33.41,2.4,2.4,0,0,0,1.34-4.4Z"/><path class="cls-1" d="M203.93,881.77a9.33,9.33,0,1,0-9.33-9.33A9.33,9.33,0,0,0,203.93,881.77Zm0-13.86a4.53,4.53,0,1,1-4.53,4.53A4.54,4.54,0,0,1,203.93,867.91Z"/><path class="cls-1" d="M13.23,905.08h29a4.71,4.71,0,0,0,4.7-4.7V880.93l2.56-.17a2.4,2.4,0,0,0,1-4.49L30,864.88a4.59,4.59,0,0,0-4.51,0L5,876.27a2.4,2.4,0,0,0,1,4.49l2.56.17v19.45A4.71,4.71,0,0,0,13.23,905.08Zm14.43-36,14.88,8.27a2.33,2.33,0,0,0-.31,1.35v21.64h-9.7v-6.05a3.6,3.6,0,0,0-3.6-3.6H26.54a3.61,3.61,0,0,0-3.6,3.61v6h-9.6V878.69a2.4,2.4,0,0,0-.43-1.37Z"/><path class="cls-1" d="M1388.22,885.88a2.4,2.4,0,0,0-2.4,2.4v12a2.4,2.4,0,1,0,0,4.8h33.58a2.4,2.4,0,0,0,0-4.8v-12a2.4,2.4,0,0,0-4.8,0v12h-24v-12A2.4,2.4,0,0,0,1388.22,885.88Z"/><path class="cls-1" d="M1415.44,864.29h-25.66a11.18,11.18,0,0,0-11.16,11.16,4,4,0,0,0,1.76,3.3l3,2a8.8,8.8,0,0,0,9.87-.1,4,4,0,0,1,4.53.1,8.8,8.8,0,0,0,9.87-.1,4,4,0,0,1,4.52.1,8.77,8.77,0,0,0,9.72,0l3-2a4,4,0,0,0,1.77-3.3A11.18,11.18,0,0,0,1415.44,864.29Zm3.76,12.45a4,4,0,0,1-4.54-.1,8.8,8.8,0,0,0-9.85.1,4,4,0,0,1-4.55-.1,8.8,8.8,0,0,0-9.85.1,4,4,0,0,1-4.4,0l-2.58-1.73a6.38,6.38,0,0,1,6.35-5.92h25.66a6.38,6.38,0,0,1,6.35,5.92Z"/><path class="cls-1" d="M1546.61,906.79a2.39,2.39,0,0,0,2.4-2.4,1.74,1.74,0,0,1,1.71-1.71h39.76a1.73,1.73,0,0,1,1.71,1.71,2.4,2.4,0,0,0,4.8,0,6.52,6.52,0,0,0-6.51-6.51h-39.76a6.52,6.52,0,0,0-6.51,6.51A2.4,2.4,0,0,0,1546.61,906.79Z"/><path class="cls-1" d="M1572.65,857.29a4.6,4.6,0,0,0-4.09,0l-20.34,7.14a2.4,2.4,0,0,0,.79,4.66h43.18a2.4,2.4,0,0,0,.8-4.66Zm-9.56,7,7.21-2.53c.13,0,.11-.1.23-.17a2.48,2.48,0,0,0,.37.17l7.22,2.53Z"/><path class="cls-1" d="M1553.81,881.09v12a2.4,2.4,0,1,0,4.8,0v-12a2.4,2.4,0,1,0-4.8,0Z"/><path class="cls-1" d="M1568.2,881.09v12a2.4,2.4,0,0,0,4.8,0v-12a2.4,2.4,0,0,0-4.8,0Z"/><path class="cls-1" d="M1582.6,881.09v12a2.4,2.4,0,1,0,4.79,0v-12a2.4,2.4,0,1,0-4.79,0Z"/><path class="cls-1" d="M1556.21,905.08a2.4,2.4,0,1,0,0,4.79H1585a2.4,2.4,0,0,0,0-4.79Z"/><path class="cls-1" d="M1549,876.29h43.18a2.4,2.4,0,0,0,0-4.8H1549a2.4,2.4,0,0,0,0,4.8Z"/><path class="cls-1" d="M546.17,912.27a24,24,0,1,0-24-24A24,24,0,0,0,546.17,912.27Zm-17.78-16.79h8.18v0a12.16,12.16,0,0,0,2.43,2.43h0v8.18A19.27,19.27,0,0,1,528.39,895.48Zm17.78-14.39a7.2,7.2,0,1,1-7.2,7.19A7.2,7.2,0,0,1,546.17,881.09Zm-2.4,26.22V900a12.12,12.12,0,0,0,4.8,0v7.27a17,17,0,0,1-4.8,0Zm9.6-1.25v-8.18h0a11.91,11.91,0,0,0,2.43-2.43v0H564A19.3,19.3,0,0,1,553.37,906.06Zm11.82-15.38h-7.27a12.12,12.12,0,0,0,0-4.8h7.27a17,17,0,0,1,0,4.8ZM564,881.09h-8.19v0a11.91,11.91,0,0,0-2.43-2.43h0V870.5A19.32,19.32,0,0,1,564,881.09Zm-15.38-11.83v7.27a12.12,12.12,0,0,0-4.8,0v-7.27a17,17,0,0,1,4.8,0ZM539,870.5v8.19h0a12.16,12.16,0,0,0-2.43,2.43v0h-8.18A19.29,19.29,0,0,1,539,870.5Zm-11.83,15.38h7.28a11.65,11.65,0,0,0,0,4.8h-7.28a18.08,18.08,0,0,1,0-4.8Z"/><path class="cls-1" d="M735.85,884.52v-3.43c0-13.23-9.69-24-21.59-24s-21.59,10.76-21.59,24v3a10.55,10.55,0,0,0,1.42,21c3.56,0,5.77-4.05,5.77-10.56,0-4.08-.87-7.19-2.4-8.95v-4.48c0-10.59,7.54-19.2,16.8-19.2s16.79,8.61,16.79,19.2v3.13c-1.14.41-2.45,1.44-3.35,3.87a19.48,19.48,0,0,0-1,6.43c0,5.58,1.63,9.34,4.34,10.3v.26a9.61,9.61,0,0,1-7.94,9.44,4.81,4.81,0,1,0,.15,4.82,14.41,14.41,0,0,0,12.59-14.26v-.56a10.54,10.54,0,0,0,0-20Zm-42,15.75a5.75,5.75,0,0,1,0-11.5c.46.52,1.19,2.54,1.19,5.75S694.34,899.75,693.88,900.27Zm38.82,0c-.46-.52-1.19-2.54-1.19-5.75s.73-5.23,1.19-5.75a5.75,5.75,0,0,1,0,11.5Z"/><path class="cls-1" d="M879.63,864.29a24,24,0,1,0,24,24A24,24,0,0,0,879.63,864.29Zm0,43.19a19.2,19.2,0,1,1,19.19-19.2A19.22,19.22,0,0,1,879.63,907.48Z"/><path class="cls-1" d="M886.83,885.88H882v-7.19a2.4,2.4,0,1,0-4.8,0v9.59a2.39,2.39,0,0,0,2.4,2.4h7.2a2.4,2.4,0,0,0,0-4.8Z"/><path class="cls-1" d="M1060.75,869.09a19.19,19.19,0,0,0-17,10.37,14.37,14.37,0,0,0-3.41-.72c-.4,0-.8,0-1.2,0a14.4,14.4,0,0,0-14.39,14.39,1.92,1.92,0,0,0,0,.52,5.19,5.19,0,0,0,0,.68,13.22,13.22,0,0,0,13.19,13.2h24a12.51,12.51,0,0,0,5.28-1.15,19.18,19.18,0,0,0-6.48-37.24Zm4.66,32.81a8.34,8.34,0,0,1-3.46.78h-24a8.4,8.4,0,0,1-8.39-8.4,3.41,3.41,0,0,0,0-.46v-.25a2.63,2.63,0,0,0,0-.49,9.6,9.6,0,0,1,9.59-9.59,8.72,8.72,0,0,1,1.14.07h.1a9.84,9.84,0,0,1,3.41,1.18l.82.46a9.58,9.58,0,0,1,3.94,5.95,2.39,2.39,0,0,0,2.35,1.92,2.06,2.06,0,0,0,.48-.05,2.4,2.4,0,0,0,1.87-2.83,14.35,14.35,0,0,0-5.27-8.46,14.35,14.35,0,0,1,27.15,6.54A14.53,14.53,0,0,1,1065.41,901.9Z"/><path class="cls-1" d="M1217.91,907.48a2.4,2.4,0,0,0,0-4.8h-13.2a8.41,8.41,0,0,1-8.39-8.47l0-.39a1,1,0,0,0,0-.25,2.07,2.07,0,0,0-.07-.49,9.58,9.58,0,0,1,9.56-9.59,9.14,9.14,0,0,1,4.57,1.26,2.38,2.38,0,0,0,.61.23,9.58,9.58,0,0,1,4.3,6.18,2.39,2.39,0,0,0,2.34,1.92,2,2,0,0,0,.48-.05,2.4,2.4,0,0,0,1.88-2.83,14.33,14.33,0,0,0-5.39-8.54,14.08,14.08,0,0,1,26.67,6.62,2.4,2.4,0,1,0,4.79,0,18.88,18.88,0,0,0-35.71-8.86,14.19,14.19,0,0,0-4.47-.73h-.07a14.39,14.39,0,0,0-14.36,14.39,4,4,0,0,0,.06.66,4.89,4.89,0,0,0,0,.54,13.22,13.22,0,0,0,13.2,13.2Z"/><path class="cls-1" d="M1250.71,891.3a2.4,2.4,0,0,0-3.4,3.39l.83.84h-8.72a2.4,2.4,0,1,0,0,4.79h8.63l-.74.74a2.4,2.4,0,0,0,3.4,3.4l4.88-4.89a4.26,4.26,0,0,0,.7-1.69,2.44,2.44,0,0,0-.7-1.7Z"/><path class="cls-1" d="M1234,898.5a2.39,2.39,0,0,0-3.39,0l-4.88,4.88a2.4,2.4,0,0,0-.67,2.08,2.36,2.36,0,0,0,.7,1.34l4.77,4.77a2.4,2.4,0,0,0,3.39-3.39l-.66-.66h8.56a2.4,2.4,0,1,0,0-4.8h-8.65l.83-.83A2.39,2.39,0,0,0,1234,898.5Z"/><path class="cls-1" d="M898.8,1046.62H860.63a2.4,2.4,0,0,0-2.22,1.48c-.19.46-4.58,11.35.05,21.13,4.52,9.55,10.81,11,14.16,11h11.79A19.22,19.22,0,0,0,901,1069.28c4.25-8.54.3-20.52.13-21A2.4,2.4,0,0,0,898.8,1046.62Zm-2.14,20.52a14.53,14.53,0,0,1-12.25,8.26H872.62c-3.82,0-7.31-2.92-9.82-8.22-2.83-6-1.34-12.81-.46-15.77H897C898,1055.21,899.05,1062.34,896.66,1067.14Z"/><path class="cls-1" d="M871.23,1041.82a7.21,7.21,0,0,1,7.2-7.2h2.4a7.21,7.21,0,0,1,7.2,7.2,2.4,2.4,0,1,0,4.79,0,12,12,0,0,0-12-12h-2.4a12,12,0,0,0-12,12,2.4,2.4,0,1,0,4.79,0Z"/><path class="cls-1" d="M868.83,1056.21a2.4,2.4,0,0,0-2.39,2.4v7.2a2.4,2.4,0,1,0,4.79,0v-7.2A2.4,2.4,0,0,0,868.83,1056.21Z"/><path class="cls-1" d="M890.43,1056.21a2.4,2.4,0,0,0-2.4,2.4v7.2a2.4,2.4,0,1,0,4.79,0v-7.2A2.4,2.4,0,0,0,890.43,1056.21Z"/><path class="cls-1" d="M876,1056.21a2.41,2.41,0,0,0-2.4,2.4v7.2a2.4,2.4,0,0,0,4.8,0v-7.2A2.4,2.4,0,0,0,876,1056.21Z"/><path class="cls-1" d="M883.23,1056.21a2.4,2.4,0,0,0-2.4,2.4v7.2a2.4,2.4,0,0,0,4.8,0v-7.2A2.41,2.41,0,0,0,883.23,1056.21Z"/><path class="cls-1" d="M1075.15,1041.82h-21.59a2.4,2.4,0,0,0,0,4.8H1072l-3.93,13.84a2,2,0,0,0,0,.6h-21.7a2.24,2.24,0,0,0-.1-.63l-7.2-24.1a2.4,2.4,0,0,0-2.3-1.71h-7.19a2.4,2.4,0,1,0,0,4.8H1035l6.6,22.11a4.7,4.7,0,0,0,4.67,4.28h21.81a4.7,4.7,0,0,0,4.67-4.3l4.72-16.64a2.39,2.39,0,0,0-2.3-3Z"/><circle class="cls-1" cx="1043.96" cy="1075.4" r="4.8"/><path class="cls-1" d="M1070.35,1070.61a4.8,4.8,0,1,0,4.8,4.79A4.79,4.79,0,0,0,1070.35,1070.61Z"/><path class="cls-1" d="M1215.49,1051.41h-2.4a2.4,2.4,0,1,0,0,4.8h2.4a2.4,2.4,0,1,0,0-4.8Z"/><path class="cls-1" d="M1225.08,1051.41h-2.4a2.4,2.4,0,0,0,0,4.8h2.4a2.4,2.4,0,1,0,0-4.8Z"/><path class="cls-1" d="M1234.68,1051.41h-2.4a2.4,2.4,0,1,0,0,4.8h2.4a2.4,2.4,0,0,0,0-4.8Z"/><path class="cls-1" d="M1215.49,1058.61h-2.4a2.4,2.4,0,1,0,0,4.8h2.4a2.4,2.4,0,0,0,0-4.8Z"/><path class="cls-1" d="M1225.08,1058.61h-2.4a2.4,2.4,0,0,0,0,4.8h2.4a2.4,2.4,0,0,0,0-4.8Z"/><path class="cls-1" d="M1234.68,1058.61h-2.4a2.4,2.4,0,1,0,0,4.8h2.4a2.4,2.4,0,0,0,0-4.8Z"/><path class="cls-1" d="M1215.49,1065.81h-2.4a2.4,2.4,0,1,0,0,4.8h2.4a2.4,2.4,0,1,0,0-4.8Z"/><path class="cls-1" d="M1225.08,1065.81h-2.4a2.4,2.4,0,0,0,0,4.8h2.4a2.4,2.4,0,1,0,0-4.8Z"/><path class="cls-1" d="M1234.68,1065.81h-2.4a2.4,2.4,0,1,0,0,4.8h2.4a2.4,2.4,0,0,0,0-4.8Z"/><path class="cls-1" d="M1242,1039.42h-4.91V1037a2.4,2.4,0,1,0-4.8,0v2.4h-16.79V1037a2.4,2.4,0,0,0-4.8,0v2.4h-4.94a4.66,4.66,0,0,0-4.66,4.66v24.13a9.61,9.61,0,0,0,9.6,9.59h26.39a9.6,9.6,0,0,0,9.59-9.59v-24.1A4.69,4.69,0,0,0,1242,1039.42Zm-.11,28.79a4.81,4.81,0,0,1-4.8,4.8h-26.39a4.93,4.93,0,0,1-4.94-4.8v-24h4.94v2.46a2.4,2.4,0,0,0,4.8,0v-2.46h16.79v2.46a2.4,2.4,0,1,0,4.8,0v-2.46h4.8Z"/><path class="cls-1" d="M1402.61,1039.42A21.59,21.59,0,1,0,1424.2,1061,21.61,21.61,0,0,0,1402.61,1039.42Zm0,38.38A16.79,16.79,0,1,1,1419.4,1061,16.81,16.81,0,0,1,1402.61,1077.8Z"/><path class="cls-1" d="M1406.78,1059.41a2.38,2.38,0,0,0-1.77-.8h-3.6a1.2,1.2,0,0,1,0-2.4h3.6a2.4,2.4,0,1,0,0-4.8V1049a2.4,2.4,0,1,0-4.8,0v2.39s0,.08,0,.12a6,6,0,0,0,1.19,11.88h2.4a1.2,1.2,0,1,1,0,2.4h-6a2.4,2.4,0,0,0,0,4.8h2.4v2.4a2.4,2.4,0,0,0,4.8,0v-2.4s0-.08,0-.12a6,6,0,0,0,1.78-11.08Z"/><path class="cls-1" d="M1591,1041.82h-40.78a9.61,9.61,0,0,0-9.6,9.59v19.2a9.61,9.61,0,0,0,9.6,9.59H1591a9.61,9.61,0,0,0,9.6-9.59v-19.2A9.61,9.61,0,0,0,1591,1041.82Zm4.8,28.79a4.8,4.8,0,0,1-4.8,4.79h-40.78a4.8,4.8,0,0,1-4.8-4.79v-19.2a4.8,4.8,0,0,1,4.8-4.79H1591a4.8,4.8,0,0,1,4.8,4.79Z"/><path class="cls-1" d="M1574.2,1073v-2.4s0-.08,0-.12a6,6,0,0,0,1.78-11.08,2.36,2.36,0,0,0-1.77-.8h-3.6a1.2,1.2,0,0,1,0-2.4h3.6a2.4,2.4,0,1,0,0-4.8V1049a2.4,2.4,0,1,0-4.8,0v2.39s0,.08,0,.12a6,6,0,0,0,1.19,11.88h2.4a1.2,1.2,0,1,1,0,2.4h-6a2.4,2.4,0,0,0,0,4.8h2.4v2.4a2.4,2.4,0,0,0,4.8,0Z"/><path class="cls-1" d="M1591,1056.21a2.41,2.41,0,0,0-2.4,2.4v4.8a2.4,2.4,0,1,0,4.8,0v-4.8A2.4,2.4,0,0,0,1591,1056.21Z"/><path class="cls-1" d="M1550.21,1056.21a2.4,2.4,0,0,0-2.4,2.4v4.8a2.4,2.4,0,1,0,4.8,0v-4.8A2.4,2.4,0,0,0,1550.21,1056.21Z"/><path class="cls-1" d="M732.4,1037.39H710.94a2.37,2.37,0,0,0-1.7.71l-17,17a9.61,9.61,0,0,0,0,13.57l13.55,13.55a9.6,9.6,0,0,0,13.57,0l17-17a2.38,2.38,0,0,0,.7-1.69v-21.46A4.69,4.69,0,0,0,732.4,1037.39Zm-.11,25.15L716,1078.81a4.82,4.82,0,0,1-6.79,0l-13.55-13.56a4.8,4.8,0,0,1,0-6.78l16.25-16.34h20.35Z"/><path class="cls-1" d="M725.93,1054.11a3.6,3.6,0,1,0-5.09,0A3.59,3.59,0,0,0,725.93,1054.11Z"/><path class="cls-1" d="M561.76,1037H530.58a9.6,9.6,0,0,0-9.6,9.6v19.19a9.6,9.6,0,0,0,9.6,9.59h31.18a9.61,9.61,0,0,0,9.6-9.59v-19.19A9.61,9.61,0,0,0,561.76,1037Zm-36,9.6a4.8,4.8,0,0,1,4.8-4.8h31.18a4.8,4.8,0,0,1,4.8,4.8v2.4H525.78Zm40.78,19.19a4.81,4.81,0,0,1-4.8,4.8H530.58a4.81,4.81,0,0,1-4.8-4.8v-12h40.78Z"/><path class="cls-1" d="M530.58,1065.81h4.79a2.4,2.4,0,0,0,0-4.8h-4.79a2.4,2.4,0,0,0,0,4.8Z"/><path class="cls-1" d="M367,1040.08l-6.78,6.79a2.4,2.4,0,1,0,3.39,3.39l6.78-6.78a7.19,7.19,0,0,1,10.18,10.17l-6.78,6.79a2.4,2.4,0,1,0,3.39,3.39l6.79-6.78a12,12,0,0,0-17-17Z"/><path class="cls-1" d="M365.33,1068.92l-6.79,6.79a7.2,7.2,0,0,1-10.18-10.18l6.79-6.79a2.4,2.4,0,0,0-3.4-3.39l-6.78,6.79a12,12,0,0,0,17,17l6.79-6.79a2.4,2.4,0,0,0-3.39-3.39Z"/><path class="cls-1" d="M367,1053.65l-8.48,8.49a2.4,2.4,0,0,0,3.39,3.39l8.48-8.48a2.4,2.4,0,1,0-3.39-3.4Z"/><path class="cls-1" d="M208.94,1067.23a9.6,9.6,0,0,0-13.49-.08l-14.62-16.08.08-.08a9.61,9.61,0,0,0,0-13.57l-3.39-3.39a4.79,4.79,0,0,0-6.79,0l-3.39,3.39a14.4,14.4,0,0,0-.07,20.29l21.31,23.09a14.41,14.41,0,0,0,20.36,0l3.39-3.39a4.82,4.82,0,0,0,0-6.79Zm-3.4,10.18a9.6,9.6,0,0,1-13.5.07l-21.31-23.09a9.62,9.62,0,0,1,0-13.58l3.4-3.39,3.39,3.39a4.81,4.81,0,0,1,0,6.79l-1.7,1.69a2.41,2.41,0,0,0-.08,3.32l17.85,19.62a2.4,2.4,0,0,0,1.72.79,2.64,2.64,0,0,0,1.75-.7l1.7-1.7a4.91,4.91,0,0,1,6.78,0l3.4,3.39Z"/><path class="cls-1" d="M199.34,1056a2.4,2.4,0,1,0,4.8,0,10.81,10.81,0,0,0-10.8-10.8,2.4,2.4,0,1,0,0,4.8A6,6,0,0,1,199.34,1056Z"/><path class="cls-1" d="M193.34,1035.63a2.4,2.4,0,1,0,0,4.8,15.61,15.61,0,0,1,15.6,15.59,2.4,2.4,0,1,0,4.79,0A20.41,20.41,0,0,0,193.34,1035.63Z"/><path class="cls-1" d="M12.65,1053.81H9.23a5.49,5.49,0,0,0-5.49,5.49v13a5.49,5.49,0,0,0,5.49,5.48h3.42a5.49,5.49,0,0,0,5.49-5.48v-13A5.49,5.49,0,0,0,12.65,1053.81Zm.69,18.51a.7.7,0,0,1-.69.69H9.23a.7.7,0,0,1-.69-.69v-13a.7.7,0,0,1,.69-.69h3.42a.7.7,0,0,1,.69.69Z"/><path class="cls-1" d="M29.45,1044.22H26a5.49,5.49,0,0,0-5.48,5.48v22.62A5.49,5.49,0,0,0,26,1077.8h3.43a5.49,5.49,0,0,0,5.48-5.48V1049.7A5.49,5.49,0,0,0,29.45,1044.22Zm.68,28.1a.7.7,0,0,1-.68.69H26a.7.7,0,0,1-.69-.69V1049.7A.7.7,0,0,1,26,1049h3.43a.69.69,0,0,1,.68.68Z"/><path class="cls-1" d="M46.24,1034.62H42.81a5.49,5.49,0,0,0-5.48,5.49v32.21a5.49,5.49,0,0,0,5.48,5.48h3.43a5.49,5.49,0,0,0,5.48-5.48v-32.21A5.49,5.49,0,0,0,46.24,1034.62Zm.69,37.7a.7.7,0,0,1-.69.69H42.81a.7.7,0,0,1-.68-.69v-32.21a.69.69,0,0,1,.68-.69h3.43a.7.7,0,0,1,.69.69Z"/></g></g></svg>