<svg xmlns="http://www.w3.org/2000/svg" viewBox="0 0 860.2 112.28"><defs><style>.cls-1{fill:#363838;}</style></defs><g id="Layer_2" data-name="Layer 2"><g id="Layer_1-2" data-name="Layer 1"><polygon class="cls-1" points="518.85 22.5 518.85 111.82 497.24 111.82 497.24 29.7 518.85 22.5"/><polygon class="cls-1" points="551.96 11.46 551.96 111.81 529.75 111.81 529.75 18.87 551.96 11.46"/><polygon class="cls-1" points="585.96 0.14 585.96 111.81 563.15 111.81 563.15 7.75 585.96 0.14"/><path class="cls-1" d="M642,19v43h-5.82l-23.94-31v31h-6.74V19h5.81L635.3,50V19Z"/><path class="cls-1" d="M652,27a3.69,3.69,0,1,1,3.69-3.68A3.57,3.57,0,0,1,652,27Zm3.06,35h-6.15V32.47h6.15Z"/><path class="cls-1" d="M675.84,44.75l12.29,17.17h-6.78l-9.49-13.18-4.62,4.91v8.27h-6.11V19h6.11v26.7l12.59-13.18h7.37Z"/><path class="cls-1" d="M702.06,31.84A15.34,15.34,0,1,1,686.72,47.2,15.56,15.56,0,0,1,702.06,31.84Zm0,5.54a9.52,9.52,0,0,0-9.23,9.82,9.23,9.23,0,1,0,18.43,0A9.49,9.49,0,0,0,702.06,37.38Z"/><path class="cls-1" d="M727.57,61.92h-6.11V19h6.11Z"/><path class="cls-1" d="M750.64,61.92V58.87a13,13,0,0,1-8.9,3.65c-6.53,0-10.43-4.51-10.43-8.57,0-5,3.47-8.35,8.57-9.2l10.76-1.85c0-3-2.35-5.52-6.14-5.52-3.62,0-5.25,1.34-7.67,4l-4-4a14.87,14.87,0,0,1,11.66-5.54c7.59,0,12.29,5.13,12.29,11.06v19Zm0-14.11-9.53,1.53c-2.11.38-3.68,1.78-3.68,4,0,2.38,2.67,3.69,5.24,3.69C751.52,57,750.57,48,750.64,47.81Z"/><path class="cls-1" d="M618.07,92.61c-8-2-13.79-4.76-13.79-12.84,0-6.11,4.8-11.66,14.11-11.66a16.7,16.7,0,0,1,12.89,5.51L627,77.94a11.17,11.17,0,0,0-8.61-3.69c-3.8,0-7.37,2.1-7.37,5.52,0,4.34,4.73,5.75,8.93,6.81,7.89,2,13.79,4.71,13.79,12.81,0,7-5,12.89-15.35,12.89a19.61,19.61,0,0,1-15.34-6.74l4.29-4.29c1.62,2.47,5.87,4.92,11,4.92,5.82,0,8.61-3.34,8.61-6.78C627,95.07,622.26,93.67,618.07,92.61Z"/><path class="cls-1" d="M644.82,85.28a13.13,13.13,0,0,1,8.9-3.69c6.8,0,12,4.66,12,12.92v17.17h-6.14V94.51a7,7,0,0,0-7.08-7.37c-5,0-7.67,3.52-7.67,8.6v15.94h-6.11v-43h6.11Z"/><path class="cls-1" d="M675.39,99.1a9.3,9.3,0,0,0,9.23,7.67,10.91,10.91,0,0,0,8.9-4.59l4,4a17,17,0,0,1-12.88,6.11,15.54,15.54,0,0,1-15.35-15.64,15,15,0,0,1,15-15A14,14,0,0,1,698.73,96l-.33,3.06Zm.27-5.22h17.05a8.18,8.18,0,0,0-8.42-7C679.72,86.84,676.66,89.87,675.66,93.88Z"/><path class="cls-1" d="M717.15,89.6a8.2,8.2,0,0,0-5.54-2.46c-2.09,0-4.29,1-4.29,3.06s2,3,3.9,3.47c6.06,1.62,11.14,3.34,11.14,9.41,0,4.63-3.94,9.2-11.05,9.2-6.75,0-9.48-3.5-11.36-5.21l4-4a10,10,0,0,0,7.37,3.69c2.66,0,4.91-1,4.91-3.69,0-1.92-2-3-3.89-3.46-6.06-1.68-11.15-3.28-11.15-9.42,0-4.12,4-8.61,10.43-8.61a13.07,13.07,0,0,1,9.53,4Z"/><path class="cls-1" d="M729.42,72.4h5.52v9.82h6.14v5.52h-6.14V103a3.65,3.65,0,0,0,1,2.7c2,2,5.38.47,5.72.45v5.51a13.89,13.89,0,0,1-4.31.6q-8.61,0-8.57-9.2V87.74h-5.55V82.22h3.09c2,0,3-1.22,3-3.68Z"/><path class="cls-1" d="M763,111.68v-3.05a12.86,12.86,0,0,1-8.9,3.65c-6.53,0-10.42-4.51-10.42-8.57,0-5,3.46-8.36,8.56-9.2L763,92.65c0-3-2.35-5.51-6.14-5.51-3.62,0-5.25,1.34-7.67,4l-4-4a14.9,14.9,0,0,1,11.66-5.55c7.59,0,12.29,5.14,12.29,11.06v19Zm0-14.11-9.53,1.53c-2.11.38-3.68,1.77-3.68,4,0,2.38,2.67,3.69,5.24,3.69C763.92,106.77,763,97.77,763,97.57Z"/><path class="cls-1" d="M789.72,94.51,802,111.68h-6.78l-9.5-13.18-4.61,4.91v8.27H775V74.77l3-6.06h3.11v26.7l12.59-13.19h7.37Z"/><path class="cls-1" d="M815.94,81.59A15.35,15.35,0,1,1,800.6,97,15.56,15.56,0,0,1,815.94,81.59Zm0,5.55a9.84,9.84,0,1,0,9.2,9.81A9.51,9.51,0,0,0,815.94,87.14Z"/><path class="cls-1" d="M842.1,111.68l-12-29.46h6.44l8.6,21.49,8.6-21.49h6.45l-12,29.46Z"/><path class="cls-1" d="M769.14,61.91l-12-29.39h6.43L772.19,54l8.58-21.44h6.43L774,65q-2.26,5.45-4.49,7.63a7.69,7.69,0,0,1-5.58,2.18,16.66,16.66,0,0,1-2.3-.15,8.84,8.84,0,0,1-1.59-.33l-.42-.12V68.64a8.87,8.87,0,0,0,3.08.63c2.34,0,4.07-1.46,5.21-4.31Z"/><polygon class="cls-1" points="21.6 22.36 21.6 111.68 0 111.68 0 29.57 21.6 22.36"/><polygon class="cls-1" points="54.72 11.33 54.72 111.67 32.51 111.67 32.51 18.73 54.72 11.33"/><polygon class="cls-1" points="88.72 0 88.72 111.67 65.9 111.67 65.9 7.61 88.72 0"/><polygon class="cls-1" points="143.81 61.81 137.06 61.81 137.06 43.03 115.82 43.03 115.82 61.81 109.06 61.81 109.06 18.73 115.82 18.73 115.82 36.91 137.06 36.91 137.06 18.73 143.81 18.73 143.81 61.81"/><polygon class="cls-1" points="177.28 32.28 177.28 61.81 171.12 61.81 171.12 42.43 155.74 61.81 150.22 61.81 150.22 32.28 156.38 32.28 156.38 51.66 171.75 32.28 177.28 32.28"/><polygon class="cls-1" points="198.29 44.6 210.58 61.81 203.82 61.81 194.3 48.59 189.67 53.52 189.67 61.81 183.52 61.81 183.52 32.28 189.67 32.28 189.67 45.5 202.29 32.28 209.68 32.28 198.29 44.6"/><path class="cls-1" d="M225.75,31.65a15.38,15.38,0,1,1-15.38,15.4A15.6,15.6,0,0,1,225.75,31.65Zm0,5.56a9.54,9.54,0,0,0-9.25,9.84,9.25,9.25,0,1,0,18.47,0A9.51,9.51,0,0,0,225.75,37.21Z"/><path class="cls-1" d="M272.25,32.28V61.81h-6.16v-24H255.64V40.9a52.58,52.58,0,0,1-1.33,13.32c-1.42,5.19-3.39,8.19-8.82,8.19a14.42,14.42,0,0,1-3.69-.6V56c1.77.43,3.72.61,5.12-.69,2.39-2.23,2.56-11.13,2.56-14.36V32.28Z"/><path class="cls-1" d="M296.54,61.81V58.74a12.87,12.87,0,0,1-8.92,3.67c-6.55,0-10.45-4.53-10.45-8.59,0-5.06,3.48-8.38,8.59-9.22l10.78-1.87a5.13,5.13,0,0,0-1.72-3.93,6.29,6.29,0,0,0-4.43-1.59,8.62,8.62,0,0,0-7.69,4l-4-4a14.92,14.92,0,0,1,11.69-5.56c7.62,0,12.31,5.16,12.31,11.08V61.81Zm0-14.15L287,49.19c-2.12.39-3.69,1.79-3.69,4,0,2.38,2.68,3.69,5.26,3.69C297.43,56.88,296.48,47.86,296.54,47.66Z"/><path class="cls-1" d="M336.52,32.28V61.81h-6.16V42.43L315,61.81h-5.53V32.28h6.16V51.66L331,32.28ZM327.3,18.74h4.62c0,4.85-3.63,8.62-8.92,8.62s-8.92-3.76-8.92-8.62h4.59a4.32,4.32,0,1,0,8.63,0Z"/><polygon class="cls-1" points="160.73 111.68 109.06 111.68 109.06 68.61 115.82 68.61 115.82 105.52 131.5 105.52 131.5 68.61 138.29 68.61 138.29 105.52 153.97 105.52 153.97 68.61 160.73 68.61 160.73 111.68"/><path class="cls-1" d="M170.8,99.07a9.31,9.31,0,0,0,9.25,7.68,10.94,10.94,0,0,0,8.92-4.59l4,4a17.21,17.21,0,0,1-12.91,6.13A15.57,15.57,0,0,1,164.67,96.6a15.06,15.06,0,0,1,15.06-15.08A14.06,14.06,0,0,1,194.19,96l-.33,3.07Zm.27-5.23h17.09a8.2,8.2,0,0,0-8.44-7.06C175.14,86.78,172.07,89.82,171.07,93.84Z"/><path class="cls-1" d="M213.25,81.52a15.59,15.59,0,0,1,12,5.86l-4,4a10.51,10.51,0,0,0-8-4.3,9.85,9.85,0,0,0,0,19.67c5.3,0,8.08-4.4,8.29-4.59l4,4a16.46,16.46,0,0,1-12.28,6.13,15.38,15.38,0,1,1,0-30.76Z"/><polygon class="cls-1" points="227.52 82.16 253.96 82.16 253.96 87.68 243.8 87.68 243.8 111.68 237.68 111.68 237.68 87.68 227.52 87.68 227.52 82.16"/><path class="cls-1" d="M275,111.68v-3.06a12.9,12.9,0,0,1-8.92,3.66c-6.55,0-10.45-4.52-10.45-8.59,0-5,3.48-8.37,8.59-9.22L275,92.61c0-3-2.35-5.53-6.15-5.53a8.6,8.6,0,0,0-7.69,4l-4-4a14.92,14.92,0,0,1,11.69-5.56c7.61,0,12.31,5.15,12.31,11.09v19.07Zm0-14.15-9.55,1.54c-2.11.38-3.69,1.78-3.69,4,0,2.38,2.68,3.69,5.26,3.69C275.88,106.75,274.93,97.74,275,97.53Z"/><polygon class="cls-1" points="301.5 94.47 313.79 111.68 307.03 111.68 297.51 98.47 292.88 103.39 292.88 111.68 286.72 111.68 286.72 82.16 292.88 82.16 292.88 95.37 305.5 82.16 312.88 82.16 301.5 94.47"/><path class="cls-1" d="M329,81.52a15.38,15.38,0,1,1-15.38,15.4A15.6,15.6,0,0,1,329,81.52Zm0,5.56a9.86,9.86,0,1,0,9.22,9.84A9.54,9.54,0,0,0,329,87.08Z"/><path class="cls-1" d="M362.92,82.15c6.1,0,9.22,3.61,9.22,7.69,0,3-1.13,4.27-3.36,6.16a7.73,7.73,0,0,1,4.93,7.06c0,5.55-4.42,8.62-10.16,8.62H348.78V82.15Zm0,5.23h-8v6.16h8a3.08,3.08,0,1,0,0-6.16Zm-8,11.08v8h8.62a3.72,3.72,0,0,0,4-4,3.9,3.9,0,0,0-4-4Z"/></g></g></svg>