<svg xmlns="http://www.w3.org/2000/svg" viewBox="0 0 169.2 52.7"><defs><style>.cls-1{fill:#9cff00;}</style></defs><g id="Layer_2" data-name="Layer 2"><g id="Layer_4" data-name="Layer 4"><g id="Layer_2-2" data-name="Layer 2"><g id="Layer_1-2" data-name="Layer 1-2"><g id="Layer_2-2-2" data-name="Layer 2-2"><g id="Layer_1-2-2" data-name="Layer 1-2-2"><path class="cls-1" d="M0,22.7H14.3c6.7,0,9.5,3.5,9.5,7.9a6.73,6.73,0,0,1-5.1,6.5A6.51,6.51,0,0,1,24,43.8c0,4.7-3,8.1-9.6,8.1H0ZM11.6,34.2c2.4,0,3.6-1.3,3.6-3,0-2-1.5-2.9-3.6-2.9H8.7v5.9ZM8.7,39.8v6h3c3,0,3.6-1.9,3.6-3,0-1.7-1.1-3-3.6-3Z"/><path class="cls-1" d="M26.1,22.7h8.7v19a3.5,3.5,0,0,0,7,0v-19h8.7V41.8c0,6.8-5.2,10.9-12.2,10.9-7.6,0-12.2-4.7-12.2-10.9Z"/><polygon class="cls-1" points="71.4 40 71.4 22.7 80.1 22.7 80.1 51.9 71.3 51.9 61.7 35.2 61.7 51.9 53 51.9 53 22.7 61.9 22.7 71.4 40"/><polygon class="cls-1" points="91.7 40 91.7 51.9 83 51.9 83 22.7 91.7 22.7 91.7 34.6 99.8 22.7 109.9 22.7 99.2 37.3 109.9 51.9 99.8 51.9 91.7 40"/><polygon class="cls-1" points="120.1 29.2 120.1 34.3 130.2 34.3 130.2 40.5 120.1 40.5 120.1 45.4 130.2 45.4 130.2 51.9 111.4 51.9 111.4 22.7 130.2 22.7 130.2 29.2 120.1 29.2"/><path class="cls-1" d="M132.6,22.7h14a10.62,10.62,0,0,1,11,10.2h0v.6a10.58,10.58,0,0,1-5.3,9.4l5.8,8.9H147.9l-5-7.5h-1.6v7.5h-8.7Zm12.2,15a3.84,3.84,0,0,0,3.9-3.9v-.2a3.76,3.76,0,0,0-3.6-4.1h-3.9v8.3Z"/><path class="cls-1" d="M159,47.4a5.19,5.19,0,0,1,5-5.2,5.12,5.12,0,0,1,5.2,5,5.19,5.19,0,0,1-5,5.2H164a5,5,0,0,1-5-5Z"/></g></g><path class="cls-1" d="M3.8,6.2V8.3A4.59,4.59,0,0,1,8,5.9a3.71,3.71,0,0,1,3.8,2.4,5.6,5.6,0,0,1,4.6-2.4,4.54,4.54,0,0,1,3.2,1.2,5.85,5.85,0,0,1,1.3,4v8.8H17.1V11.6C17.1,9.7,16.3,9,15,9a2.56,2.56,0,0,0-2.7,2.4v8.5H8.6V11.6C8.6,9.7,7.8,9,6.4,9a2.48,2.48,0,0,0-2.6,2.4v8.5H0V6.2Z"/><path class="cls-1" d="M23.8,19.2a4.1,4.1,0,0,1-1.4-3.1,3.52,3.52,0,0,1,2-3.4,10.14,10.14,0,0,1,5.1-1H31v-.6c0-1.6-.5-2.5-2.2-2.5a2.11,2.11,0,0,0-2.3,1.8v.1H23A4.76,4.76,0,0,1,24.9,7a7,7,0,0,1,4.2-1.1A6.52,6.52,0,0,1,33.2,7a5,5,0,0,1,1.6,4v8.9H31.1V18.2A4.42,4.42,0,0,1,27,20.1,5.38,5.38,0,0,1,23.8,19.2Zm7.3-4.1V14H29.6c-2.2,0-3.5.5-3.5,1.9,0,1,.6,1.6,2,1.6C29.8,17.5,31.1,16.6,31.1,15.1Z"/><path class="cls-1" d="M38.2,18.4a7.34,7.34,0,0,1-1.7-5.1V13a7.43,7.43,0,0,1,1.7-5.2,5.75,5.75,0,0,1,4.3-1.9,4.56,4.56,0,0,1,4.3,2.3V0h3.8V19.9H46.8V17.6a5.09,5.09,0,0,1-4.4,2.6A6,6,0,0,1,38.2,18.4Zm8.7-5.3v-.2c0-2.7-1.2-4.1-3.3-4.1s-3.3,1.4-3.3,4.1v.2c0,2.7,1.3,4.1,3.2,4.1S46.9,15.9,46.9,13.1Z"/><path class="cls-1" d="M54.3,18.3a6.49,6.49,0,0,1-2-5.1V13a7.24,7.24,0,0,1,2-5.2,6.55,6.55,0,0,1,5-1.9A6.73,6.73,0,0,1,64,7.5a6.93,6.93,0,0,1,2,5.3v1H56.1c.1,2.3,1.3,3.6,3.4,3.6,1.8,0,2.6-.8,2.8-1.9H66c-.4,3-2.8,4.6-6.5,4.6A7.51,7.51,0,0,1,54.3,18.3Zm5-9.8c-1.7,0-2.8,1.1-3.1,3.1h6.1c-.1-2.1-1.2-3.1-3-3.1Z"/><path class="cls-1" d="M72.3,2.3a2.09,2.09,0,0,1,2-2.1h.1a2.18,2.18,0,0,1,2.2,2v.1a2.11,2.11,0,0,1-2.1,2.1h-.1a2,2,0,0,1-2.1-2Zm4,3.9V19.9H72.6V6.2Z"/><path class="cls-1" d="M82.6,6.2V8.4A4.8,4.8,0,0,1,87,5.9a4.51,4.51,0,0,1,3.3,1.2,5.85,5.85,0,0,1,1.3,4v8.7H87.8V11.7c0-1.9-.7-2.7-2.4-2.7a2.7,2.7,0,0,0-2.9,2.5v8.4H78.7V6.2Z"/></g></g></g></g></svg>